<svg xmlns="http://www.w3.org/2000/svg" width="54" height="60" viewBox="0 0 54 60">
  <metadata><?xpacket begin="﻿" id="W5M0MpCehiHzreSzNTczkc9d"?>
<x:xmpmeta xmlns:x="adobe:ns:meta/" x:xmptk="Adobe XMP Core 5.6-c138 79.159824, 2016/09/14-01:09:01        ">
   <rdf:RDF xmlns:rdf="http://www.w3.org/1999/02/22-rdf-syntax-ns#">
      <rdf:Description rdf:about=""/>
   </rdf:RDF>
</x:xmpmeta>
                                                                                                    
                                                                                                    
                                                                                                    
                                                                                                    
                                                                                                    
                                                                                                    
                                                                                                    
                                                                                                    
                                                                                                    
                                                                                                    
                                                                                                    
                                                                                                    
                                                                                                    
                                                                                                    
                                                                                                    
                                                                                                    
                                                                                                    
                                                                                                    
                                                                                                    
                                                                                                    
                           
<?xpacket end="w"?></metadata>
<defs>
    <style>
      .cls-1 {
        fill: #3c9;
        fill-rule: evenodd;
      }
    </style>
  </defs>
  <path id="Forma_1" data-name="Forma 1" class="cls-1" d="M51.168,0H2.832A2.836,2.836,0,0,0,0,2.832V57.168A2.836,2.836,0,0,0,2.832,60H51.168A2.836,2.836,0,0,0,54,57.168V2.832A2.836,2.836,0,0,0,51.168,0ZM2.832,2H51.168A0.833,0.833,0,0,1,52,2.832V29H2V2.832A0.833,0.833,0,0,1,2.832,2ZM51.168,58H2.832A0.833,0.833,0,0,1,2,57.168V31H52V57.168A0.833,0.833,0,0,1,51.168,58ZM21.505,18h10.99A3.509,3.509,0,0,0,36,14.5V13a1,1,0,0,0-2,0V14.5A1.507,1.507,0,0,1,32.495,16H21.505A1.507,1.507,0,0,1,20,14.5V13a1,1,0,0,0-2,0V14.5A3.509,3.509,0,0,0,21.505,18ZM35,41a1,1,0,0,0-1,1V43.5A1.507,1.507,0,0,1,32.495,45H21.505A1.507,1.507,0,0,1,20,43.5V42a1,1,0,0,0-2,0V43.5A3.509,3.509,0,0,0,21.505,47h10.99A3.509,3.509,0,0,0,36,43.5V42A1,1,0,0,0,35,41Z"/>
</svg>
