<svg id="Layer_1" data-name="Layer 1" xmlns="http://www.w3.org/2000/svg" viewBox="0 0 1280 1024"><defs><style>.cls-1,.cls-48{fill:#e1f4ed;stroke:#e1f4ed;}.cls-1,.cls-10,.cls-3,.cls-47,.cls-48{stroke-miterlimit:10;}.cls-1{stroke-width:0.25px;}.cls-2{fill:#404040;}.cls-3,.cls-9{fill:#fff;}.cls-10,.cls-3,.cls-47{stroke:#fff;}.cls-10,.cls-3,.cls-47,.cls-48{stroke-width:3px;}.cls-4{fill:#a67c52;}.cls-5{fill:#23845c;}.cls-6{fill:#febba9;}.cls-7{fill:#333;}.cls-8{fill:#f5e0cd;}.cls-10{fill:#f0f;}.cls-11{fill:#259c72;}.cls-12{font-size:12px;font-family:Chalkduster, Chalkduster;}.cls-13{letter-spacing:0.02em;}.cls-14{letter-spacing:0.01em;}.cls-15{letter-spacing:0.01em;}.cls-16{letter-spacing:0em;}.cls-17{letter-spacing:0.04em;}.cls-18{letter-spacing:0.01em;}.cls-19{letter-spacing:0.03em;}.cls-20{letter-spacing:0.03em;}.cls-21{letter-spacing:-0.04em;}.cls-22{letter-spacing:-0.02em;}.cls-23{letter-spacing:0.02em;}.cls-24{letter-spacing:2.5em;}.cls-25{letter-spacing:0.04em;}.cls-26{letter-spacing:0.04em;}.cls-27{letter-spacing:-0.06em;}.cls-28{letter-spacing:-0.04em;}.cls-29{letter-spacing:0.03em;}.cls-30{letter-spacing:-0.05em;}.cls-31{letter-spacing:-0.08em;}.cls-32{letter-spacing:0.03em;}.cls-33{letter-spacing:-0.05em;}.cls-34{letter-spacing:0.01em;}.cls-35{letter-spacing:-0.01em;}.cls-36{letter-spacing:0em;}.cls-37{letter-spacing:0em;}.cls-38{letter-spacing:-0.07em;}.cls-39{letter-spacing:-0.04em;}.cls-40{letter-spacing:-0.04em;}.cls-41{letter-spacing:-0.13em;}.cls-42{letter-spacing:-0.08em;}.cls-43{fill:#2aad7e;}.cls-44{fill:#414143;}.cls-45{fill:#2daa7a;}.cls-46{fill:#ebfaf5;}.cls-49{fill:#7d4921;}</style></defs><title>Artboard 1</title><circle class="cls-1" cx="554.26" cy="331.59" r="681.18"/><path class="cls-2" d="M325.2,679.09a40.5,40.5,0,0,1-4.65-11.67c-1.82-7.79-1.68-15.82-1.54-23.77"/><path class="cls-2" d="M326.49,678.33c-6.1-10.72-6.2-22.68-6-34.68,0-1.93-3-1.93-3,0-.22,12.56,0,25,6.4,36.19a1.5,1.5,0,0,0,2.59-1.51Z"/><rect class="cls-3" x="672.73" y="84.07" width="319.59" height="197.81" rx="12" ry="12"/><path class="cls-4" d="M814.2,415a128.52,128.52,0,0,0,.29,26c.32,2.87,1,6.14,3.56,7.52a9.4,9.4,0,0,0,4.41.77l9.17.12c2.15,0,4.85.45,5.44,2.51a5.11,5.11,0,0,1-.47,3.15L832.48,466l11.41-4.66"/><path class="cls-4" d="M812.7,415a134.94,134.94,0,0,0-.22,20.48c.26,3.84.15,9.15,2.63,12.4,2.64,3.47,7.1,3,11,3,3.24,0,9-1.07,9,3.84,0,1.3-1.59,4.21-2.06,5.44L831,465.56a1.51,1.51,0,0,0,1.85,1.85l11.41-4.66c1.76-.72,1-3.62-.8-2.89l-11.41,4.66,1.85,1.85c1.26-3.32,2.58-6.62,3.77-10,.6-1.68,1.37-3.43.66-5.22-1.32-3.36-5.6-3.23-8.57-3.28s-7.23.7-9.95-.3c-4.5-1.65-4.1-8.46-4.36-12.16A134.43,134.43,0,0,1,815.7,415c.16-1.92-2.84-1.91-3,0Z"/><path class="cls-5" d="M819.34,631.79a257,257,0,0,0-.12-28.43"/><path class="cls-5" d="M820.84,631.79a274.88,274.88,0,0,0-.12-28.43c-.11-1.92-3.11-1.93-3,0a274.88,274.88,0,0,1,.12,28.43c-.09,1.93,2.91,1.93,3,0Z"/><path class="cls-2" d="M909.87,635.23c3,24.9,4.78,62.3-26.18,70.43-13.57,3.56-29,2.25-42.9,2.32q-22.9.12-45.8-.58a1.52,1.52,0,0,0-1.45,1.1c-1.28,4.76,1.16,8.73,3.17,12.94q4.34,9.11,8.46,18.32,8.36,18.68,15.79,37.75c.7,1.78,3.6,1,2.89-.8q-6.19-15.84-13-31.44-3.46-7.93-7.08-15.78c-2.42-5.24-8.91-14.43-7.35-20.2L795,710.4q25.88.76,51.78.53c14-.14,30.3,1.42,43.46-4.36,27.4-12,25.57-46.81,22.64-71.34-.23-1.89-3.23-1.92-3,0Z"/><path d="M911.22,631.67a1.5,1.5,0,0,0,0-3,1.5,1.5,0,0,0,0,3Z"/><path class="cls-5" d="M911.39,631.34a883.31,883.31,0,0,0-22.63-118.57c-1.44-5.48-2.95-11.14-2.14-16.75"/><path class="cls-5" d="M912.89,631.34q-4.09-33.57-10.65-66.76-3.33-16.72-7.29-33.31c-2.67-11.14-8-23.71-6.83-35.25.19-1.92-2.81-1.91-3,0-1,10.49,3.33,21.25,5.79,31.31q4.18,17,7.67,34.22,7.05,34.65,11.31,69.79c.23,1.89,3.23,1.92,3,0Z"/><path class="cls-6" d="M425.48,427.41a306.11,306.11,0,0,1,3.71,31.11,8.91,8.91,0,0,1-.27,3.68,7.48,7.48,0,0,1-2.64,3.17,21.34,21.34,0,0,1-7.83,3.78,52.78,52.78,0,0,0,3.57,15.6,43.61,43.61,0,0,1-22.95,4.37c-7.84-.82-15.51-4.47-20.45-10.62a15.88,15.88,0,0,0,6.66-8.94,47.2,47.2,0,0,0,1.78-11.23"/><path class="cls-6" d="M424,427.81c1.28,7.6,2.31,15.23,3,22.9.26,2.78,1.09,6.28.69,9.06-.68,4.77-5.66,6.79-9.71,7.94a1.52,1.52,0,0,0-1.1,1.45,60.11,60.11,0,0,0,3.62,16l.69-1.69c-13.94,6.29-31,6.4-41.58-6l-.3,2.36c7.34-4.88,8.54-13.29,9.18-21.47.15-1.93-2.85-1.92-3,0-.55,7-1.34,14.65-7.69,18.88a1.53,1.53,0,0,0-.3,2.36c11.52,13.46,30.11,13.29,45.22,6.48a1.5,1.5,0,0,0,.69-1.69,57.06,57.06,0,0,1-3.52-15.2l-1.1,1.45c6.18-1.77,12.09-5.06,11.85-12.08-.37-10.52-2-21.15-3.77-31.51-.32-1.9-3.21-1.09-2.89.8Z"/><path class="cls-2" d="M390,703.74a73.18,73.18,0,0,1-36,3.89c-8.91-1.29-18-4.56-23.74-11.5-3.78-4.59-5.75-10.36-7.54-16-3-9.38-5.65-19.33-3.52-28.93"/><path class="cls-2" d="M389.58,702.29c-15.71,5.67-36.24,7.5-51.25-1.31-7.88-4.62-11.28-12.15-14-20.52-3-9.37-5.65-19-3.76-28.91.36-1.89-2.53-2.69-2.89-.8-1.94,10.19.44,20,3.52,29.73,2.61,8.26,5.85,16.23,13.11,21.46,15.54,11.2,39,9.38,56,3.23,1.8-.65,1-3.55-.8-2.89Z"/><path class="cls-7" d="M440.86,746.51a684.52,684.52,0,0,0,15.89,90.06,175.15,175.15,0,0,0,52.75-24.09c-10.85-4.8-23.39-2-34.91.8-3-9.24-.16-19.21,2.45-28.55,7.14-25.49,12.91-51.33,18.69-77.16a109.25,109.25,0,0,0,3-17.95,54.69,54.69,0,0,0-6.82-29c-4.48-8.18-11.88-17.32-20.57-21.3-3.33-1.53-7.88-.35-11.34.13l-4.74.67c-.2,0-.43.08-.49.27"/><path class="cls-7" d="M439.36,746.51A702.06,702.06,0,0,0,455.3,837a1.52,1.52,0,0,0,1.85,1,181.09,181.09,0,0,0,53.11-24.24,1.52,1.52,0,0,0-.36-2.74c-11.61-4.72-24-2.06-35.71.8l1.85,1c-3-10.66.67-21.21,3.49-31.48,2.56-9.34,5-18.72,7.24-28.13,4.49-18.49,9.58-37.22,12.58-56a58.81,58.81,0,0,0-11.24-45.2c-4.12-5.49-9.54-11.31-16-14-2.73-1.12-5.38-1-8.26-.68s-7.27.33-9.82,1.75c-1.69.94-.18,3.53,1.51,2.59,2.34-1.3,9-1.69,11.67-1.62,4.62.11,8.84,3.54,12.08,6.52a58,58,0,0,1,12.95,18c8.14,17.3,4,34.33,0,52.06-3.82,17-7.7,34-12.05,50.88-3.75,14.55-11.23,31-7,46.18a1.53,1.53,0,0,0,1.85,1c11.25-2.75,23-5.33,34.11-.8l-.36-2.74a178.54,178.54,0,0,1-52.39,23.94l1.85,1a695.92,695.92,0,0,1-15.83-89.66c-.21-1.9-3.21-1.92-3,0Z"/><path class="cls-2" d="M657.69,738.12a651.65,651.65,0,0,1-5.26,81.9,7,7,0,0,0,.12,3.4c.69,1.8,2.68,2.68,4.51,3.3,7.44,2.51,16.17,4.27,20.21,11a176.05,176.05,0,0,1-45.84,2.37,2.28,2.28,0,0,1-2.71-2.51q-1-13-2-26l-1.05-13.23-4.77-60"/><path class="cls-2" d="M656.19,738.12a661.25,661.25,0,0,1-3.46,66.36c-.54,5.18-1.39,10.35-1.8,15.54-.23,2.9.2,5.11,2.71,6.77,7.28,4.82,16.92,3.59,22.33,11.69l.9-2.2a178.46,178.46,0,0,1-36.82,2.79c-2.91-.09-8.7.43-9.9-2.41-.91-2.17-.46-6-.64-8.35q-.68-8.82-1.39-17.63l-5.75-72.28c-.15-1.91-3.15-1.93-3,0q3.32,41.71,6.63,83.42.4,5.1.79,10.2c.16,2.11-.12,4.83.59,6.85,1.3,3.72,6.67,2.95,9.79,3.09a181.53,181.53,0,0,0,40.5-2.79,1.51,1.51,0,0,0,.9-2.2c-3.72-5.57-9.56-8-15.72-10a41,41,0,0,1-5.39-1.72c-3.94-1.95-3.5-5.38-3-9.13q.95-7.76,1.7-15.55,3-31.14,3.07-62.47a1.5,1.5,0,0,0-3,0Z"/><path class="cls-2" d="M726.62,738.12a651.65,651.65,0,0,1-5.26,81.9,7,7,0,0,0,.12,3.4c.69,1.8,2.68,2.68,4.51,3.3,7.44,2.51,16.17,4.27,20.21,11a176.05,176.05,0,0,1-45.84,2.37,2.28,2.28,0,0,1-2.71-2.51q-1-13-2-26l-1.05-13.23-4.77-60"/><path class="cls-2" d="M725.12,738.12a661.25,661.25,0,0,1-3.46,66.36c-.54,5.18-1.39,10.35-1.8,15.54-.23,2.9.2,5.11,2.71,6.77,7.28,4.82,16.92,3.59,22.33,11.69l.9-2.2A178.46,178.46,0,0,1,709,839.07c-2.91-.09-8.7.43-9.9-2.41-.91-2.17-.46-6-.64-8.35q-.68-8.82-1.39-17.63L691.3,738.4c-.15-1.91-3.15-1.93-3,0q3.32,41.71,6.63,83.42.4,5.1.79,10.2c.16,2.11-.12,4.83.59,6.85,1.3,3.72,6.67,2.95,9.79,3.09a181.53,181.53,0,0,0,40.5-2.79,1.51,1.51,0,0,0,.9-2.2c-3.72-5.57-9.56-8-15.72-10a41,41,0,0,1-5.39-1.72c-3.94-1.95-3.5-5.38-3-9.13q.95-7.76,1.7-15.55,3-31.14,3.07-62.47a1.5,1.5,0,0,0-3,0Z"/><path class="cls-7" d="M605.9,525.83l13.58,139.53"/><path class="cls-2" d="M604.4,525.83,618,665.36c.19,1.9,3.19,1.92,3,0L607.4,525.83c-.19-1.9-3.19-1.92-3,0Z"/><path class="cls-2" d="M658.63,676.06a388.65,388.65,0,0,1,5-85.93l-2.74.36c3.5,5.3,4.79,11.45,6.29,17.52q2.46,9.92,4.81,19.87,4.59,19.43,8.75,39c.4,1.89,3.3,1.09,2.89-.8q-4.37-20.48-9.19-40.85-2.36-9.95-4.83-19.87c-1.43-5.73-2.84-11.37-6.13-16.35-.64-1-2.51-1-2.74.36a392.23,392.23,0,0,0-5.06,86.73c.1,1.92,3.1,1.93,3,0Z"/><path class="cls-7" d="M720.23,530.22,723.88,571"/><path class="cls-2" d="M718.73,530.22,722.38,571c.17,1.91,3.17,1.93,3,0l-3.65-40.75c-.17-1.91-3.17-1.93-3,0Z"/><path class="cls-2" d="M724.87,624.63l1.89,27.14c.13,1.92,3.13,1.93,3,0l-1.89-27.14c-.13-1.92-3.13-1.93-3,0Z"/><path class="cls-8" d="M652.24,277.58a205.78,205.78,0,0,1-.09,22,57.1,57.1,0,0,0,27.11-2.21,4.86,4.86,0,0,0,1.35-.62,4.5,4.5,0,0,0,1.47-2.81c1.29-6-.46-12.82,2.57-18.21.79-1.4,1.87-2.62,2.69-4A17.27,17.27,0,0,0,689,260.17a51.39,51.39,0,0,0-3.71-11.31"/><path class="cls-8" d="M650.74,277.58q.49,11-.09,22a1.5,1.5,0,0,0,1.1,1.45,61.19,61.19,0,0,0,22.62-.72c6.89-1.58,9.21-3,9.68-10.21.27-4.14-.24-8.46,1.39-12.38,1.33-3.19,3.81-5.59,4.75-9,1.92-7-.76-13.88-3.39-20.25-.73-1.76-3.63-1-2.89.8,2.29,5.54,5,11.83,3.59,17.94-1.23,5.21-5.32,8.58-6,14.1-.31,2.39-.24,4.81-.33,7.21,0,1.33.1,4-.49,5-1.22,2-4,3.11-6.17,3.64a57,57,0,0,1-21.91.94l1.1,1.45q.59-11,.09-22c-.09-1.92-3.09-1.93-3,0Z"/><path class="cls-9" d="M678.29,369.24v6.64a1.5,1.5,0,0,0,3,0,26.16,26.16,0,0,1,.62-5.61c.35-1.58-1.94-2.74-2.74-1.16q-1.8,3.55-3.93,6.9l2.74.36a20.52,20.52,0,0,1,.23-8.67l-2.95-.4c.16,2.18-.32,6.15,2.65,6.64a5.37,5.37,0,0,0,3.07-.66c1.92-.85,3.78-1.89,5.66-2.82l-2.2-1.69a35.76,35.76,0,0,1-2.74,9.82l2.74.36a8.57,8.57,0,0,1,0-4.36,1.52,1.52,0,0,0-2.2-1.69,21.89,21.89,0,0,0-5.16,3.6l2.36.3-.83-1.46a1.5,1.5,0,0,0-2.59,1.51l.83,1.46a1.52,1.52,0,0,0,2.36.3,19,19,0,0,1,4.55-3.13l-2.2-1.69a11.81,11.81,0,0,0,0,6c.28,1.17,2.21,1.56,2.74.36a38.32,38.32,0,0,0,3-10.53,1.52,1.52,0,0,0-2.2-1.69c-1.75.87-3.47,1.82-5.25,2.62-.94.43-1,.63-1.37-.07s-.18-2.37-.24-3.12c-.12-1.6-2.53-2.14-2.95-.4a24.24,24.24,0,0,0-.23,10.26c.25,1.34,2.1,1.37,2.74.36q2.14-3.36,3.93-6.9L679,369.47a30,30,0,0,0-.73,6.41h3v-6.64a1.5,1.5,0,0,0-3,0Z"/><line class="cls-10" x1="979.7" y1="709.03" x2="256.01" y2="709.03"/><path class="cls-9" d="M693.74,331.23a28,28,0,0,1-8,2.28l.76,2.8,15.59-7.15a1.51,1.51,0,0,0,0-2.59c-2.4-1-4.38.06-6.61,1.12a86.67,86.67,0,0,0-9.93,5.56l1.82,2.36.47-.4c1.48-1.25-.66-3.36-2.12-2.12l-.47.4c-1.3,1.1.39,3.27,1.82,2.36,2.08-1.34,4.19-2.61,6.37-3.77,1.39-.74,5.62-3.57,7.14-2.91v-2.59L685,333.71c-1.31.6-.71,3,.76,2.8a33,33,0,0,0,9.48-2.69c1.76-.79.23-3.38-1.51-2.59Z"/><path class="cls-11" d="M663.5,405.44c-1.53-7.69,4.18-15.63,6.3-22.84a79.73,79.73,0,0,0,3.07-19.52l-1.5,1.5c3.49.41,6.57,6.38,8.54,9l6.15,8c1,1.25,3.27.62,2.74-1.16q-1.74-5.8-3.38-11.63c-1-3.5-3-8-3.16-11.69q-1.49-2.26.32-1.74a1.72,1.72,0,0,1,1.93,1.33,24.48,24.48,0,0,1,3.89,5.14,52.65,52.65,0,0,1,5.77,11.92,1.5,1.5,0,0,0,2.89-.8l-3.43-22.27-2.89.8,8.65,20.69c.72,1.73,3.36,1.14,2.89-.8q-2.49-10.21-5.55-20.27a1.5,1.5,0,0,0-2.89.8,122.55,122.55,0,0,0,3.77,17,1.5,1.5,0,0,0,2.89-.8l-5-26.81-2.89.8,3.69,15.37,2.74-1.16a86.58,86.58,0,0,1-5.89-12.71l-2.74,1.16L696.06,356c.75,1.5,3.33.45,2.74-1.16L692.23,337l-2.89.8,5.72,13.79,2.74-1.16a107.9,107.9,0,0,1-8.69-17l-2.51,1.46a60.72,60.72,0,0,1,7.16,7.86c1.14,1.5,3.55.23,2.59-1.51l-6.75-12.27L687,330.42l6.69,10.2,2.59-1.51-7.61-11.35-2.36,1.82,6.1,6c1.17,1.15,3.42-.43,2.36-1.82a83.74,83.74,0,0,1-6.66-10.1l-2.05,2.05,5.94,4.24c1.38,1,3.08-1.22,1.82-2.36l-9.39-8.46-2.12,2.12,7.18,5.57c1.49,1.16,3.63-.88,2.12-2.12a52.43,52.43,0,0,1-8-8.2l-1.82,2.36,7.65,4.09c1.7.91,3.2-1.64,1.51-2.59a28.83,28.83,0,0,1-6.86-5.34L683,317.58a12.59,12.59,0,0,1,4.08.59,1.51,1.51,0,0,0,1.16-2.74l-4-2.94-1.16,2.74,3.67.76a1.5,1.5,0,0,0,.8-2.89l-4.83-2-.4,2.95a30,30,0,0,1,6.43,1.08c1.89.53,2.58-2.24.8-2.89l-7.15-2.62-.8,2.89,4.31,1a1.51,1.51,0,0,0,1.16-2.74l-4.76-2.95-.36,2.74,2.16-.33a1.51,1.51,0,0,0,.66-2.51,7.81,7.81,0,0,1-2.14-2.26l-1.69,2.2,2.23.61a1.51,1.51,0,0,0,1.16-2.74L682,303.82l-.36,2.74,2.48-.61a1.52,1.52,0,0,0,.36-2.74l-3.58-2.1-1.16,2.74,2.65.39a1.5,1.5,0,0,0,.8-2.89l-2.28-.88a1.51,1.51,0,0,0-1.85,1.85c9.56,26.06,28.05,52.53,20.46,81.52l2.95.4-1.25-13.86-2.95.4q2.9,13.46,4.79,27.09c.23,1.66,3.07,1.28,2.95-.4l-1.38-18.66-2.95.4a112.33,112.33,0,0,1,3.5,16.43l2.89-.8L705.91,381c-.26-1.65-3.11-1.28-2.95.4l2.49,25.14,2.95-.4-2.47-13.66c-.3-1.65-3.11-1.29-2.95.4l2.25,22.73,2.95-.4a185.1,185.1,0,0,1-1.62-21.68l-2.95.4q2.87,7.79,5.06,15.79l2.89-.8A87.81,87.81,0,0,1,708,396.08c-.32-1.65-3-1.29-2.95.4l1.24,21.61c.11,1.92,3.08,1.94,3,0l-1-23.07-2.95.4,4,19.08,2.89-.8a134.76,134.76,0,0,1-4.13-19.05l-2.89.8a82.74,82.74,0,0,1,2.69,24l2.95-.4a97.21,97.21,0,0,1-3.48-25.35l-2.95.4a145.11,145.11,0,0,1,3.87,23.77l2.95-.4a155.71,155.71,0,0,1-2.15-23.6l-2.95.4a264.51,264.51,0,0,1,3.08,28.19l2.95-.4a109.64,109.64,0,0,1-2.61-34l-2.95.4a234.64,234.64,0,0,1,3.08,30.78l2.95-.4q-2.28-13.79-3.53-27.7l-2.95.4a150.08,150.08,0,0,1,2.92,33.44h3l-.2-16.22-2.95.4a116.86,116.86,0,0,1,3.44,23.09,1.5,1.5,0,0,0,3,0,95.83,95.83,0,0,0-1.27-17.93l-2.89.8a108.2,108.2,0,0,1,4.55,21.44l2.95-.4a87.5,87.5,0,0,1-4.39-15.7l-2.74,1.16c5.32,10.61,2.89,23,6.07,34.21.45,1.57,3.1,1.34,2.95-.4l-2.12-24.5-2.95.4a135.26,135.26,0,0,1,3,29.2h3l-2.22-21.16-2.95.4a207.92,207.92,0,0,1,4.27,23l2.95-.4a150.56,150.56,0,0,1-4.11-21.56l-2.95.4q3.8,16,7,32.14c.38,1.89,3.27,1.09,2.89-.8q-3.2-16.14-7-32.14c-.38-1.61-3.14-1.31-2.95.4a156.11,156.11,0,0,0,4.22,22.35c.42,1.58,3.16,1.32,2.95-.4a215,215,0,0,0-4.38-23.83c-.39-1.6-3.13-1.31-2.95.4l2.22,21.16c.2,1.88,3,2,3,0a139.16,139.16,0,0,0-3.16-30c-.35-1.63-3.09-1.3-2.95.4l2.12,24.5,2.95-.4c-3.27-11.52-.87-24-6.37-34.93-.81-1.61-3-.42-2.74,1.16a87.5,87.5,0,0,0,4.39,15.7c.55,1.44,3.14,1.42,2.95-.4a112.22,112.22,0,0,0-4.66-22.24,1.5,1.5,0,0,0-2.89.8,91.44,91.44,0,0,1,1.16,17.13h3a120.86,120.86,0,0,0-3.54-23.89,1.51,1.51,0,0,0-2.95.4l.2,16.22a1.5,1.5,0,0,0,3,0,153.73,153.73,0,0,0-3-34.24c-.33-1.64-3.1-1.29-2.95.4q1.29,14.32,3.63,28.5c.28,1.68,3,1.27,2.95-.4a240.89,240.89,0,0,0-3.19-31.58c-.3-1.77-2.82-1.18-2.95.4a112.35,112.35,0,0,0,2.72,34.82,1.51,1.51,0,0,0,2.95-.4,272.11,272.11,0,0,0-3.18-29c-.28-1.69-3-1.26-2.95.4a161,161,0,0,0,2.26,24.4c.28,1.66,3.08,1.29,2.95-.4a149.94,149.94,0,0,0-4-24.57,1.51,1.51,0,0,0-2.95.4A100.23,100.23,0,0,0,708,419.83a1.51,1.51,0,0,0,2.95-.4,85.47,85.47,0,0,0-2.79-24.78c-.51-1.92-3.16-1.06-2.89.8a134.76,134.76,0,0,0,4.13,19.05,1.5,1.5,0,0,0,2.89-.8l-4-19.08c-.34-1.65-3-1.29-2.95.4l1,23.07h3l-1.24-21.61-2.95.4a87.81,87.81,0,0,0,3.52,12.87c.64,1.8,3.41,1.09,2.89-.8q-2.19-8-5.06-15.79c-.56-1.51-3-1.39-2.95.4A191.87,191.87,0,0,0,705.29,416c.22,1.66,3.11,1.28,2.95-.4L706,392.9l-2.95.4L705.51,407c.3,1.65,3.11,1.29,2.95-.4L706,381.42l-2.95.4,2.14,13.82c.3,1.92,3.15,1.08,2.89-.8a112.33,112.33,0,0,0-3.5-16.43c-.46-1.57-3.07-1.34-2.95.4L703,397.46l2.95-.4Q704,383.43,701.14,370c-.35-1.63-3.1-1.3-2.95.4l1.25,13.86c.14,1.6,2.49,2.14,2.95.4,7.77-29.69-10.68-56.43-20.46-83.11l-1.85,1.85,2.28.88.8-2.89-2.65-.39c-1.58-.24-2.73,1.81-1.16,2.74l3.58,2.1.36-2.74-2.48.61a1.52,1.52,0,0,0-.36,2.74l2.34,1.67,1.16-2.74-2.23-.61c-1.19-.33-2.47,1.1-1.69,2.2a13.46,13.46,0,0,0,2.61,2.87l.66-2.51-2.16.33c-1.35.21-1.36,2.12-.36,2.74l4.76,2.95,1.16-2.74-4.31-1a1.5,1.5,0,0,0-.8,2.89l7.15,2.62.8-2.89a33.4,33.4,0,0,0-7.23-1.19c-1.83-.11-1.84,2.35-.4,2.95l4.83,2,.8-2.89-3.67-.76a1.51,1.51,0,0,0-1.16,2.74l4,2.94,1.16-2.74a22.71,22.71,0,0,0-4.88-.7,1.52,1.52,0,0,0-1.06,2.56,31.09,31.09,0,0,0,7.47,5.81l1.51-2.59-7.65-4.09a1.51,1.51,0,0,0-1.82,2.36,52.43,52.43,0,0,0,8,8.2l2.12-2.12-7.18-5.57c-1.48-1.15-3.59.8-2.12,2.12l9.39,8.46,1.82-2.36-5.94-4.24c-1.28-.91-2.74.83-2.05,2.05a83.74,83.74,0,0,0,6.66,10.1l2.36-1.82-6.1-6c-1.18-1.16-3.33.36-2.36,1.82l7.61,11.35c1.07,1.59,3.66.11,2.59-1.51l-6.69-10.2a1.5,1.5,0,0,0-2.59,1.51l6.75,12.27,2.59-1.51a65.14,65.14,0,0,0-7.63-8.47c-1-.93-3.1,0-2.51,1.46a112.24,112.24,0,0,0,9,17.74c.86,1.37,3.42.48,2.74-1.16L692.23,337c-.72-1.74-3.57-1-2.89.8l6.57,17.89,2.74-1.16L693,343.23c-.75-1.5-3.33-.45-2.74,1.16a91.54,91.54,0,0,0,6.19,13.42,1.51,1.51,0,0,0,2.74-1.16l-3.69-15.37c-.46-1.9-3.24-1.08-2.89.8l5,26.81,2.89-.8a122.55,122.55,0,0,1-3.77-17l-2.89.8q3.07,10.06,5.55,20.27l2.89-.8-8.65-20.69a1.5,1.5,0,0,0-2.89.8l3.43,22.27,2.89-.8a55.49,55.49,0,0,0-8-15.43c-1.62-2.15-4.82-7.21-8.31-6-3.76,1.27-1.26,6.71-.63,9.1q2.74,10.36,5.83,20.62l2.74-1.16L678.59,366.9c-2.06-2.69-3.71-4.92-7.22-5.33-.83-.1-1.47.77-1.5,1.5a75.71,75.71,0,0,1-4.63,23.75c-2.42,6.46-6,12.29-4.63,19.41.38,1.89,3.27,1.09,2.89-.8Z"/><path class="cls-9" d="M697.37,378q-1,2.3,1.54,3.72.74,1,1.39,2.05a47.22,47.22,0,0,1,2.78,5.08c.84,1.75,3.37.22,2.59-1.51l-4.87-10.78-2.59,1.51A63.12,63.12,0,0,1,704.6,390c.7,1.74,3.41,1.12,2.89-.8a84.57,84.57,0,0,0-3.88-11.09c-.68-1.59-3.18-.44-2.74,1.16L703,387c.44,1.6,3,1.33,2.95-.4a21.66,21.66,0,0,0-1.52-7.13,1.5,1.5,0,0,0-2.89.8l2.58,15.34c.28,1.65,3.09,1.29,2.95-.4l-1-11.59-2.95.4q1.8,11.22,2.7,22.53h3q-1-9.14-1.17-18.31l-2.95.4,3,21.35c.23,1.66,3.11,1.28,2.95-.4l-2-20.16-2.95.4A187,187,0,0,1,707.29,409h3l-2.49-22.88c-.2-1.87-3-2-3,0q0,17.23.86,34.44a1.5,1.5,0,0,0,3,0,177.48,177.48,0,0,0-1.46-24.43,1.5,1.5,0,0,0-3,0,70.46,70.46,0,0,0,3,26.48,1.51,1.51,0,0,0,2.95-.4l.3-5.25-2.8.76a23.17,23.17,0,0,1,2,6.44l2.89-.8L709,403.24c-.34-1.9-3.23-1.09-2.89.8l3.55,20.11c.34,1.9,3.22,1.09,2.89-.8a27.17,27.17,0,0,0-2.28-7.16c-.68-1.45-2.72-.6-2.8.76l-.3,5.25,2.95-.4a68.2,68.2,0,0,1-2.89-25.68h-3a177.48,177.48,0,0,1,1.46,24.43h3q-.86-17.21-.86-34.44h-3L707.29,409c.2,1.87,3.07,2,3,0a194.71,194.71,0,0,0-1.74-19.92c-.23-1.66-3.11-1.28-2.95.4l2,20.16,2.95-.4-3-21.35c-.23-1.69-3-1.26-2.95.4q.2,9.18,1.17,18.31c.2,1.89,3.16,1.94,3,0q-.94-11.73-2.81-23.33c-.27-1.66-3.09-1.29-2.95.4l1,11.59,2.95-.4-2.58-15.34-2.89.8a18,18,0,0,1,1.41,6.33l2.95-.4-2.13-7.78L701,379.61A79.1,79.1,0,0,1,704.6,390l2.89-.8a66.92,66.92,0,0,0-6.69-12.61,1.5,1.5,0,0,0-2.59,1.51l4.87,10.78,2.59-1.51c-1.35-2.8-4.9-11.19-8.77-11.39a2.26,2.26,0,0,0-2.11,3.57c1.12,1.55,3.72.06,2.59-1.51Z"/><path class="cls-9" d="M705.52,404l-.38-.75a1.5,1.5,0,1,0-2.59,1.51l.38.75a1.5,1.5,0,1,0,2.59-1.51Z"/><path class="cls-9" d="M685.23,367.75c-.78-6.45-1.29-12.92-1.46-19.42q-.11-4.38,0-8.77c0-1.08-.35-4,1.31-4.33.72-.15,3.42,2.15,4,2.5a1.51,1.51,0,0,0,2.2-.9c.78-3.41-.61-6.08-3.34-8.17a17.44,17.44,0,0,0-1.65-1.07l-2.11-1.13q-1.47-.34,0-1.33c.73-2.19,7-5.26,8.8-6.49,1-.66,1-2.49-.36-2.74-.78-.14-6.6-.68-6.83-1.25-.32-.79,1.85-3,2.25-3.92a1.55,1.55,0,0,0-.23-1.82l-2.13-1.84-.66,2.51,2.46-.69a1.51,1.51,0,0,0,0-2.89,7.37,7.37,0,0,1-5.17-4.1l-.9,2.2,2-.43a1.52,1.52,0,0,0,.36-2.74c-3.76-2.36-6.78,0-6.16,4.1a9.46,9.46,0,0,0,2.5,5.58c2.23,2.09,7.26.67,8.73,3.14a1.5,1.5,0,0,0,2.59-1.51,5.91,5.91,0,0,0-3.94-3.11c-1.63-.36-2.58,0-4.25-.83a2.53,2.53,0,0,1-2.49-2.64q-1.48-2.88,1.49-2.12l.36-2.74-2,.43a1.52,1.52,0,0,0-.9,2.2,9.79,9.79,0,0,0,7,5.48V306l-2.46.69a1.51,1.51,0,0,0-.66,2.51l2.13,1.84-.23-1.82c-1,2.18-4.51,3.85-2.92,6.7,1.45,2.59,6.69,2.4,9.3,2.88l-.36-2.74c-3,2-6,4-8.88,6.09-1.09.8-2.57,1.61-2.77,3.12-.76,5.51,10.16,3.79,8.56,10.78l2.2-.9c-4-2.48-9.19-6.75-9.69.52-.74,10.63.1,21.53,1.37,32.08.23,1.89,3.23,1.92,3,0Z"/><path class="cls-11" d="M713.34,422.45A33.6,33.6,0,0,1,717.9,436l-2.7-6.62a11.83,11.83,0,0,0,1.43,6.59c-2.63-10.78-5.27-21.64-5.78-32.73-.16-3.4-.3-7.25-2.86-9.49"/><path class="cls-9" d="M712,423.21A34.82,34.82,0,0,1,716.4,436l2.95-.4-2.7-6.62c-.6-1.48-2.94-1.42-2.95.4a16.55,16.55,0,0,0,1.64,7.34c.73,1.59,3.13.44,2.74-1.16-2.08-8.55-4.19-17.13-5.2-25.89-.66-5.73.32-12.43-3.83-17-1.3-1.43-3.42.69-2.12,2.12,2.94,3.24,2.33,8.09,2.67,12.12.25,2.89.63,5.77,1.1,8.64,1.13,7,2.81,13.91,4.49,20.8l2.74-1.16a10.34,10.34,0,0,1-1.23-5.83l-2.95.4,2.7,6.62c.57,1.4,3.19,1.44,2.95-.4a38.87,38.87,0,0,0-4.77-14.31,1.5,1.5,0,0,0-2.59,1.51Z"/><path class="cls-9" d="M720.43,461a1.5,1.5,0,0,0,0-3,1.5,1.5,0,0,0,0,3Z"/><path class="cls-9" d="M722.22,459.94a27.34,27.34,0,0,0-1.86-13.58,1.5,1.5,0,0,0-2.89.8q1.52,8.33,2.38,16.74c.19,1.88,3,2,3,0a17.6,17.6,0,0,0-2-8l-2.59,1.51a32.61,32.61,0,0,1,3.14,6.57c.62,1.81,3.45,1.07,2.89-.8-1.12-3.75-2.09-7.52-2.93-11.35l-2.89.8,3.09,13.08c.45,1.89,3.26,1.08,2.89-.8-2.26-11.65-4.13-23.47-8.49-34.56-.7-1.78-3.6-1-2.89.8,4.36,11.09,6.23,22.91,8.49,34.56l2.89-.8-3.09-13.08c-.45-1.88-3.31-1.08-2.89.8.84,3.82,1.81,7.6,2.93,11.35l2.89-.8a35.91,35.91,0,0,0-3.44-7.29,1.5,1.5,0,0,0-2.59,1.51,14.23,14.23,0,0,1,1.59,6.49h3q-.91-8.82-2.49-17.54l-2.89.8a25.54,25.54,0,0,1,1.75,12.79c-.21,1.92,2.79,1.9,3,0Z"/><path class="cls-8" d="M737,236.64a31.12,31.12,0,0,0,14.52,20.23,9,9,0,0,0,4,1.44,10.49,10.49,0,0,0,5.23-1.63c.71-4-.06-8.19-.83-12.23a12.62,12.62,0,0,0-5.46-9.48c-2.87-2.48-5.92-5-9.64-5.78"/><path class="cls-8" d="M735.54,237a33.28,33.28,0,0,0,11.19,18.31c3.54,2.9,10.43,7.05,14.71,2.62,3-3.13.26-14.49-1.2-18.06-2.31-5.66-9.35-10.61-15.08-12.18a1.5,1.5,0,0,0-.8,2.89c4.44,1.21,10.13,5,12.53,9.16,1.69,2.92,4.19,13,2.15,15.68s-6.5.43-8.68-1.12a29.31,29.31,0,0,1-5.29-4.78,31,31,0,0,1-6.64-13.32c-.44-1.88-3.33-1.08-2.89.8Z"/><text class="cls-12" transform="translate(696.37 130.99)">Pu<tspan class="cls-13" x="16.77" y="0">b</tspan><tspan class="cls-14" x="24" y="0">l</tspan><tspan class="cls-15" x="29.77" y="0">i</tspan><tspan x="34.62" y="0">c </tspan><tspan class="cls-16" x="48.13" y="0">v</tspan><tspan class="cls-17" x="55.61" y="0">oi</tspan><tspan x="69.81" y="0">d </tspan><tspan class="cls-18" x="85.15" y="0">s</tspan><tspan x="91.34" y="0">h</tspan><tspan class="cls-19" x="98.76" y="0">o</tspan><tspan class="cls-20" x="107.75" y="0">u</tspan><tspan x="116.31" y="0">ldBeSu</tspan><tspan class="cls-21" x="160.98" y="0">c</tspan><tspan class="cls-22" x="168.01" y="0">c</tspan><tspan class="cls-23" x="175.28" y="0">e</tspan><tspan x="182.99" y="0">ssf</tspan><tspan class="cls-20" x="201.49" y="0">u</tspan><tspan x="210.06" y="0">l () {</tspan><tspan class="cls-24" x="0" y="24">	</tspan><tspan x="36" y="24">b</tspan><tspan class="cls-25" x="42.97" y="24">o</tspan><tspan class="cls-26" x="52.06" y="24">o</tspan><tspan class="cls-27" x="61.18" y="24">l</tspan><tspan x="66.15" y="24">ean su</tspan><tspan class="cls-28" x="110.94" y="24">c</tspan><tspan class="cls-22" x="117.97" y="24">c</tspan><tspan class="cls-23" x="125.24" y="24">e</tspan><tspan x="132.95" y="24">ss = t</tspan><tspan class="cls-29" x="170.6" y="24">r</tspan><tspan x="177.25" y="24">ue</tspan><tspan class="cls-30" x="192.94" y="24">;</tspan><tspan class="cls-24" x="0" y="48">	</tspan><tspan x="36" y="48">b</tspan><tspan class="cls-25" x="42.97" y="48">o</tspan><tspan class="cls-26" x="52.06" y="48">o</tspan><tspan class="cls-27" x="61.18" y="48">l</tspan><tspan x="66.15" y="48">ean</tspan><tspan class="cls-31" x="90.67" y="48"> </tspan><tspan x="95.63" y="48">TDD = t</tspan><tspan class="cls-32" x="147.14" y="48">r</tspan><tspan x="153.8" y="48">ue</tspan><tspan class="cls-33" x="169.48" y="48">;</tspan><tspan class="cls-24" x="0" y="72">	</tspan><tspan class="cls-34" x="36" y="72">a</tspan><tspan x="44.42" y="72">ss</tspan><tspan class="cls-35" x="56.54" y="72">e</tspan><tspan class="cls-36" x="63.86" y="72">r</tspan><tspan class="cls-37" x="70.18" y="72">T</tspan><tspan class="cls-36" x="79.4" y="72">h</tspan><tspan class="cls-38" x="86.81" y="72">a</tspan><tspan x="94.26" y="72">t </tspan><tspan class="cls-39" x="105.71" y="72">(</tspan><tspan x="110.49" y="72">su</tspan><tspan class="cls-21" x="124.8" y="72">c</tspan><tspan class="cls-22" x="131.83" y="72">c</tspan><tspan class="cls-23" x="139.09" y="72">e</tspan><tspan x="146.81" y="72">s</tspan><tspan class="cls-39" x="152.87" y="72">s</tspan><tspan x="158.47" y="72">, is</tspan><tspan class="cls-39" x="178.94" y="72">(</tspan><tspan x="183.73" y="72">equ</tspan><tspan class="cls-40" x="207.15" y="72">a</tspan><tspan x="214.94" y="72">l</tspan><tspan class="cls-41" x="220.57" y="72">T</tspan><tspan x="228.21" y="72">o</tspan><tspan class="cls-42" x="236.83" y="72">(</tspan><tspan x="241.14" y="72">t</tspan><tspan class="cls-23" x="246.62" y="72">d</tspan><tspan x="256.27" y="72">d)</tspan><tspan class="cls-33" x="271.68" y="72">;</tspan></text><path class="cls-2" d="M350.09,674.52c4.9,1,8.29,5.28,12.12,8.5,7.41,6.24,17.3,8.85,24.86,14.91a26.21,26.21,0,0,0-12.35-5q4.48,3.79,9.13,7.38a7.77,7.77,0,0,0,3.86,1.95c2.26.2,4.19-1.52,5.76-3.15A177.93,177.93,0,0,0,418.77,666c2.53-4.26,4.93-8.84,5.07-13.79s-2.67-10.32-7.48-11.53l4.42.27q-23-.44-46,1.28c-3.11.23-6.32.49-9.3-.44a47.85,47.85,0,0,0-4.75-1.66,16.12,16.12,0,0,0-5.33.14c-10.13,1.39-20.36,2.83-29.92,6.48-3,1.14-6.44,3.68-5.4,6.69.52,1.51,2,2.41,3.42,3.19a192.93,192.93,0,0,1,28,19.28"/><path class="cls-2" d="M349.69,676c6.8,1.86,11.65,8.9,17.71,12.45,6.29,3.69,13.08,6.34,18.91,10.81l1.51-2.59a29.87,29.87,0,0,0-12.71-5.18c-1.31-.21-2.74,1.44-1.46,2.51,4.81,4,12.07,13,18.81,8.05,7.48-5.54,13.63-14.67,19-22.18,6.53-9.09,24.49-34.08,5.27-40.63l-.4,2.95,4.42.27v-3q-22-.38-44,1.14c-3.62.25-7.25.72-10.81-.25-2.81-.76-4.81-1.92-7.8-1.84-6.31.16-13,1.63-19.13,2.89-4.72,1-25.56,4.62-19.6,13.83,2.39,3.7,9,6,12.6,8.26a197.8,197.8,0,0,1,18.47,13.49c1.48,1.21,3.62-.9,2.12-2.12a200.82,200.82,0,0,0-25.95-18.17c-.78-.46-3-1.13-3.37-2l.47-5.38a10,10,0,0,1,2.58-1.25,59.71,59.71,0,0,1,8.21-2.6,156.89,156.89,0,0,1,16.86-3.15c3.54-.51,7.09-1.33,10.61-.3,2.18.64,4.08,1.57,6.39,1.8,5.25.53,10.77-.44,16-.73,12.12-.67,24.26-.86,36.39-.66,1.94,0,1.91-2.88,0-3l-4.42-.27c-1.76-.11-1.93,2.42-.4,2.95,9,3.07,6.48,13.89,3.15,20.23a138.11,138.11,0,0,1-10.21,16A174.14,174.14,0,0,1,396,694.23c-1,1.07-2,2.13-3,3.17-1.64,1.68-4.77,3-7.22,2.47-1.24-.29-4.34-3.35-5.49-4.28-1.52-1.23-3-2.48-4.52-3.74l-1.46,2.51a28,28,0,0,1,12,4.88c1.61,1.13,3-1.45,1.51-2.59-6.26-4.79-13.64-7.49-20.28-11.64-5.91-3.7-10.1-10-17-11.92a1.5,1.5,0,0,0-.8,2.89Z"/><path class="cls-43" d="M317.51,630.8a184.14,184.14,0,0,1,1.38,18.5c14.5-9.57,31.44-13.28,47.7-10.44"/><path class="cls-43" d="M316,630.8q1.11,9.22,1.38,18.5a1.51,1.51,0,0,0,2.26,1.3c13.92-8.95,30.11-12.93,46.54-10.29,1.89.3,2.7-2.59.8-2.89-17.23-2.77-34.22,1.18-48.85,10.59l2.26,1.3q-.27-9.29-1.38-18.5c-.23-1.89-3.23-1.92-3,0Z"/><path class="cls-43" d="M485,558.84l-4.38-.12,3.2,1.6-42.3,1.91a24.84,24.84,0,0,0-8.2,1.3c-4.79,1.92-7.94,6.69-9.42,11.64s-1.59,10.18-2.1,15.32c-1.24,12.48-4.9,24.58-8.55,36.58l3-8.78c3.49,5.21-1.2,12.58-7.13,14.62s-12.4.69-18.66.44c-6.65-.27-13.28.73-19.91,1.36A183.66,183.66,0,0,1,318,632.15l26.42-55c5.16-10.76,10.37-21.65,12.83-33.33,1.32-6.26,1.82-12.67,3.11-18.93,1.94-9.4,5.62-18.33,9.28-27.2l7.8-18.89a57.36,57.36,0,0,0,42.67,6.59,8.51,8.51,0,0,1,3.95-.36,7.88,7.88,0,0,1,3.48,2.38,583.48,583.48,0,0,1,52.62,60c1.34,1.76,2.72,3.64,3,5.83s-1.1,4.74-3.3,5"/><path class="cls-43" d="M485,557.34l-4.38-.12a1.51,1.51,0,0,0-.76,2.8l3.2,1.6.76-2.8-34.61,1.56c-8.15.37-17-.43-22.69,6.53s-5.38,16.13-6.31,24.51c-1.33,12-4.89,23.7-8.39,35.25-.56,1.86,2.28,2.62,2.89.8l3-8.78-2.74.36c2.4,4.33-.44,9.15-4.3,11.48s-8.9,2.09-13.31,1.81a148.88,148.88,0,0,0-25,.69,187.75,187.75,0,0,1-53.93-2.32l.9,2.2,18.75-39.06c5.83-12.14,12.21-24.17,16.87-36.82,4.75-12.87,5-26.55,8.9-39.6s9.86-25.65,15.07-38.27l-2.2.9a58.88,58.88,0,0,0,42.23,7.11,16.85,16.85,0,0,1,3.84-.79c2.25.14,4.19,2.5,5.7,4q3.28,3.29,6.5,6.63,12.26,12.7,23.73,26.13,5.73,6.71,11.26,13.59,2.91,3.62,5.76,7.29c1.21,1.56,9.78,11,3.73,12.7a1.5,1.5,0,0,0,.8,2.89c11.51-3.25-2.52-17.89-5.85-22.1Q460.85,520.44,446,504.38q-7.24-7.85-14.77-15.44c-3.79-3.82-6-6.14-11.51-5-14.46,2.9-28.68,1.06-41.51-6.44a1.53,1.53,0,0,0-2.2.9c-5.1,12.35-10.82,24.64-14.81,37.41s-4.13,26.16-8.56,38.78c-4.57,13-11.21,25.37-17.17,37.79L316.74,631.4a1.52,1.52,0,0,0,.9,2.2A191.08,191.08,0,0,0,350.79,637c11.52.15,22.77-1.65,34.23-2.15,8.6-.37,19.28,3,27.14-1.76,5.33-3.23,8.57-9.81,5.38-15.59a1.52,1.52,0,0,0-2.74.36l-3,8.78,2.89.8c2.91-9.6,5.84-19.23,7.53-29.14,1.46-8.58.51-18.48,4.54-26.36,5.08-9.93,16.77-8.33,26.27-8.76l30.76-1.39c1.39-.06,2.16-2.09.76-2.8l-3.2-1.6-.76,2.8,4.38.12c1.93.05,1.93-2.95,0-3Z"/><path class="cls-7" d="M457.78,638.75c-3.5-1.68-7.07-.61-10.83-.47-5,.2-10.07-.12-15.1-.31-1.93-.07-1.93,2.93,0,3,3.83.14,7.66.34,11.48.36,3.59,0,9.68-1.55,12.93,0,1.73.83,3.26-1.76,1.51-2.59Z"/><path class="cls-7" d="M432.21,640.29l2.67.45a26.22,26.22,0,0,1,5.53,1.34c5.64,2.27,8.94,8,13.46,12.1a30.48,30.48,0,0,0,.61-13.61"/><path class="cls-7" d="M431.81,641.73c4.85.81,9.07,1.52,12.85,4.93,2.92,2.64,5.28,5.86,8.15,8.56a1.52,1.52,0,0,0,2.51-.66,35.34,35.34,0,0,0,.61-14.4c-.3-1.9-3.19-1.09-2.89.8a31.37,31.37,0,0,1-.61,12.81l2.51-.66c-3.48-3.28-6.27-7.33-10.12-10.21-3.66-2.72-7.8-3.33-12.2-4.06-1.89-.31-2.7,2.58-.8,2.89Z"/><path class="cls-6" d="M425.1,426.58a121.67,121.67,0,0,1-13-1.11l-9.43-1.15a12.29,12.29,0,0,0-5.11.1c-2.07.64-3.63,2.3-5.08,3.9l-2,2.22a14.49,14.49,0,0,0-2.95,4.1c-1.4,3.41,0,7.28,1.52,10.62a18.12,18.12,0,0,0,3,4.84,7,7,0,0,0,5,2.41c2,0,3.74-1.09,5.35-2.22,7.75-5.44,14.05-12.66,20.07-20a6.24,6.24,0,0,0,1.69-3.15"/><path class="cls-6" d="M425.1,425.08c-6.26-.18-12.46-1-18.67-1.8-4.67-.57-8.8-1.48-12.71,1.67-3,2.39-6.77,6.31-7.9,10-1.2,4,.48,8.15,2.2,11.67,1.48,3,3.64,6.25,7.14,7.11,4.13,1,7.72-1.95,10.74-4.31a91.62,91.62,0,0,0,11.77-11.31c2.75-3.08,6.69-6.5,7.84-10.58a1.5,1.5,0,0,0-2.89-.8c-1,3.44-4.74,6.65-7.07,9.26-2,2.21-4,4.37-6.14,6.41-2.74,2.61-5.74,5.58-9.1,7.37-5.55,2.95-8.74-2.09-10.55-6.62-2.07-5.15-.9-8.64,2.74-12.71,3.31-3.69,6.07-5.14,11.09-4.55,7.15.83,14.29,1.94,21.5,2.15,1.93.05,1.93-2.95,0-3Z"/><path class="cls-44" d="M415,407.12a14.7,14.7,0,0,1,11.2-3.67c4,.53,7.77,3.44,8.73,7.37s-.95,8.09-4,10.71-7,3.87-11,4.48a41.89,41.89,0,0,1-23.31-3.13L399.46,436l-5.86-4c-1.38-.93-3.23-1.88-4.6-.93a3.63,3.63,0,0,0-1.26,2.44,13,13,0,0,0,5.17,12.68,3.59,3.59,0,0,1,1.46,1.47,2.86,2.86,0,0,1-.22,2,15.2,15.2,0,0,1-3.6,5.37c-1.42,1.36-3.64,2.46-5.26,1.35a5.08,5.08,0,0,1-1.54-2.2l-2.3-5c-2.2-4.75-4.44-9.68-4.58-14.91-.1-3.92,1-7.76,2.19-11.5,1-3,2-6,4.09-8.41a19.73,19.73,0,0,1,6.64-4.7c5.91-2.82,12.63-4.29,19.08-3.11,2.25.41,4.72,1.1,6.71,0"/><path class="cls-44" d="M416.1,408.18c4.81-3.73,12.82-5.25,16.55.94s-2.14,11.95-7.41,14c-9,3.48-19.49,2-28.16-1.67-1.14-.48-2.05.86-1.85,1.85L398,436.41l2.2-1.69c-4.19-2.83-12.94-9.84-14.06-.45a14.42,14.42,0,0,0,2.68,10c1.41,2,3.11,2.43,3.33,4.76.13,1.4-1.13,4.52-2.67,5-2.84,1-4.61-.88-5.6-3-2.58-5.57-5.5-11.2-5.51-17.48,0-5.24,2.06-12.77,5.11-17.07,3.82-5.38,12-8,18.28-8.61,4.67-.41,9.74,1.92,14.19.21,1.78-.68,1-3.58-.8-2.89-3.16,1.21-6.58-.28-9.85-.41a31.21,31.21,0,0,0-8.35.87c-5.27,1.23-11.24,3.59-14.89,7.77-6.9,7.89-8.17,21.21-4.53,30.64,1,2.6,2.2,5.12,3.37,7.65.86,1.87,1.63,4.71,3.47,5.93,3.11,2.08,6.63-.54,8.58-3s4.26-6,1.86-8.84-6-5-5.75-9.39c.4-6.4,7.25-.73,9.63.88,1.16.78,2.45-.51,2.2-1.69l-2.78-13.13-1.85,1.85c11.13,4.69,33.92,7.42,39.56-7.09a11,11,0,0,0-5-13.81c-5.69-3.17-12-1.1-16.85,2.63-1.52,1.18.61,3.29,2.12,2.12Z"/><path class="cls-4" d="M815.91,416.55a2.12,2.12,0,0,0-.83-.64,1.55,1.55,0,0,0-2.05.54,1.51,1.51,0,0,0,.54,2.05,1,1,0,0,1,.24.12q-.2-.14,0,0a1.51,1.51,0,0,0,2.12,0,1.54,1.54,0,0,0,0-2.12Z"/><path class="cls-4" d="M814.33,416.18c-.34-1,.39-2.11,1.16-2.9a15.83,15.83,0,0,1,9.54-4.76,13.52,13.52,0,0,1,10.14,3c2.83,2.43,4.41,6,5.89,9.4l6.15,14.16c2.12,4.89,4.29,10.08,3.58,15.36a14.8,14.8,0,0,1-4,8.23,3.46,3.46,0,0,1-1.68,1.11,2.88,2.88,0,0,1-2.88-1.71,22.48,22.48,0,0,1-1.11-3.41c-1.08-3.17-3.81-5.44-6.32-7.67a39,39,0,0,1-6.2-6.61c-2.75-3.92-4.26-8.59-6.8-12.66-2.39-3.84-5.74-7.28-6.62-11.72"/><path class="cls-4" d="M815.83,416.18c.34-3.2,5.41-5.39,8.07-6a12.55,12.55,0,0,1,9.27,1.72c4.56,3,6.44,9.45,8.51,14.22,2.18,5,4.67,10,6.39,15.2a19.72,19.72,0,0,1,1.16,8.82c-.3,2.28-2.72,10.3-6,6.44-.69-.81-.83-2.94-1.37-4a16.89,16.89,0,0,0-2.79-3.71c-3-3.17-6.61-5.65-9.17-9.26s-4.09-8.08-6.39-12-5.65-7.41-6.87-12a1.5,1.5,0,0,0-2.89.8c1.71,6.51,6.8,11.73,9.74,17.74a46.66,46.66,0,0,0,11.35,14.87,19.63,19.63,0,0,1,4.08,4.49c.9,1.57,1,3.4,1.88,5a4.86,4.86,0,0,0,3,2.68c4.38,1.06,7.36-5.49,8.17-8.79,1.54-6.26-1-12.39-3.44-18-3-7-5.42-15.5-10.13-21.53a15,15,0,0,0-13.74-5.76c-4.9.58-11.23,3.77-11.8,9.11-.2,1.92,2.8,1.9,3,0Z"/><path class="cls-11" d="M833.09,468.59a1.5,1.5,0,0,0,0-3,1.5,1.5,0,0,0,0,3Z"/><path class="cls-5" d="M833.13,467.33c6.92-4.09,14.6-8.34,22.54-7,8.8,1.44,15,9.17,20.29,16.34,4,5.38,8.12,11.18,8.54,17.86.21,3.35-.54,6.68-.57,10-.07,6.75,2.74,13.15,4.79,19.59,1.75,5.49,3,11.14,4.17,16.77,6.1,28.45,12.22,57,14.78,86,.19,2.19.32,4.57-.91,6.38-1.38,2-4,2.72-6.44,3.21-17.05,3.42-34.5,4.39-51.88,4.93-7.84.24-16.21.25-22.8-4a10.78,10.78,0,0,1-4.33-4.73c-1.72-4.19.67-8.83,1.16-13.33.57-5.27-1.51-10.43-2.19-15.69-.8-6.09.3-12.29-.15-18.42-.23-3.19-.88-6.33-1.4-9.48-5.89-35.78,4.78-72,15.34-106.67"/><path class="cls-5" d="M833.89,468.62c6.79-4,14.63-8.59,22.82-6.59,6.56,1.6,11.42,7,15.45,12.06s8.87,11,10.39,17.53c1.57,6.74-.75,13.67.82,20.55,1.68,7.32,4.67,14.28,6.4,21.61,1.78,7.53,3.3,15.12,4.9,22.69,3.06,14.55,6,29.15,8.23,43.85,1.16,7.53,2.15,15.09,2.9,22.67.41,4.11,1.67,9.64-3.45,11.41-3.75,1.3-8,1.67-11.95,2.25a328.17,328.17,0,0,1-45.13,3.29c-6.4.07-13.36-.23-18.88-3.86-7.61-5-1.57-14.94-2.64-22.41-1-7.23-2.34-13.72-2.11-21.09.24-7.74-1.31-14.86-2.21-22.51-4-34.28,6.22-68.2,16.08-100.62.56-1.85-2.33-2.64-2.89-.8-9.94,32.68-20.22,66.87-16.19,101.42.46,3.93,1.26,7.81,1.8,11.73.68,4.85.38,9.6.28,14.48-.19,8.8,3.64,17.36,1.89,26-1.14,5.65-2.22,10.74,2.61,15,4.54,4,10.87,5.22,16.71,5.57,16.27,1,33.48-.72,49.58-3,5.29-.75,14.89-.7,18.52-5.53,3.39-4.52.84-13.06.26-18.05-2-17.15-5.09-34.15-8.54-51.07q-2.71-13.3-5.61-26.56c-1.82-8.4-4.57-16.34-6.94-24.57-1.52-5.27-1.53-10-1.1-15.37a24.14,24.14,0,0,0-1.45-11c-2.66-6.83-7.77-13.17-12.57-18.65-4.27-4.88-9.58-9.26-16.19-10.25-8.43-1.26-16.29,3.14-23.29,7.25a1.5,1.5,0,0,0,1.51,2.59Z"/><path d="M813.53,412.59l17.38-.8c1.54-.07,3.33,0,4.31,1.16a4.54,4.54,0,0,1,.76,2.83c.1,5.73-1.93,11.59-.36,17.1,1,3.64,3.53,6.65,5.38,9.94,3.78,6.71,4.9,14.58,5.2,22.28.19,4.86.1,9.88,1.94,14.39s5.31,7.95,8.72,11.33c4,3.94,8.81,8.19,14.36,7.47,2.76-.36,5.22-1.93,7.92-2.62,8.62-2.18,18.07,4.93,26.21,1.37a4.36,4.36,0,0,0,2.47-2.2c.84-2.18-1.27-4.27-3.05-5.78A46.08,46.08,0,0,1,889.58,463c-1.41-7.31-1-14.83-1.62-22.24s-2.38-15.11-7.33-20.67c-4.26-4.78-10.57-7.62-14.06-13-2-3.13-2.91-6.83-4.39-10.26s-3.84-6.81-7.41-7.88a16.09,16.09,0,0,0-5.34-.37c-9.86.43-20.46,1.12-28.14,7.33-3.74,3-6.43,7.11-9.07,11.12a5.68,5.68,0,0,0-1.24,3.1c0,1.13,1.06,2.3,2.16,2,.67-.18,1.82-.47,1.68.21"/><path d="M813.53,414.09l11.58-.54c4.33-.2,8.63-1.62,9.33,3.95.42,3.3-.93,7-.93,10.34a18.91,18.91,0,0,0,1.33,7.32c2.71,6.58,7.11,11.62,8.61,18.83,1.35,6.51.9,13.1,1.73,19.64a25.21,25.21,0,0,0,6.16,13.59c3.68,4.33,8.33,9.37,13.7,11.57s9.17-.45,14.48-1.68c6.35-1.47,12.51,1.85,18.77,2.35,3.45.27,9.14-.11,10.81-3.87,1.84-4.15-3.12-7.3-5.55-9.68-11.23-11-13.17-24.57-13.79-39.59-.5-12.12-2.58-23.29-12.45-31.3-5.27-4.27-9.41-7.55-12-14.11-1.73-4.41-3.21-9.27-7.35-12.07-5.18-3.51-13.77-1.71-19.57-.93s-11.74,2.31-16.64,5.76c-4.4,3.09-9.68,9-11.7,14.08-.6,1.51-.89,3.15.19,4.52.41.52,4,2.07,3.27.82a1.5,1.5,0,0,0,2.59-1.51l-.22-.4a1.5,1.5,0,0,0-1.3-.74c-4.13.07,4.54-10.48,6-11.88,4.57-4.42,10.51-6.47,16.68-7.47,4.77-.77,12.44-2.25,17.12-.71,6.08,2,7.06,9.66,9.4,14.65,4.22,9,14.63,12.18,19.07,21,5.5,11,3.12,23.78,5,35.49a48,48,0,0,0,11.5,24.25c1,1.08,5.11,4,5.46,5.27l-.6,2.5q.38,3.46-3,2.93a17.17,17.17,0,0,1-2.87-.06c-5.25-.47-10.21-2.73-15.54-2.7s-10.18,4.28-15.53,2.67-10.23-7.14-13.76-11.32c-7.69-9.1-4.84-21-7.12-31.91-1.19-5.69-3.63-10.36-6.62-15.28-4.29-7-2.45-12.82-2.28-20.41.08-3.39-.45-6.38-4.17-7.11-2.58-.51-5.55,0-8.16.17l-11.58.54c-1.92.09-1.93,3.09,0,3Z"/><path class="cls-2" d="M909.2,636.4A81.35,81.35,0,0,1,904,687.88a17.4,17.4,0,0,0,4.61-10.69l-8.9,16.06,3.22-2.92a45.73,45.73,0,0,1-12.57,12.48,20.69,20.69,0,0,1-5,2.56,26.77,26.77,0,0,1-7.07,1l-39.16,1.81a3.81,3.81,0,0,1-2.23-.35c-1.9-1.2-.41-4.11,1.16-5.71l13.58-13.77,8.7-8.82,29.55-29.94c5-5.11,11-10.6,18.18-10.22"/><path class="cls-2" d="M907.76,636.8a81.29,81.29,0,0,1-5,50.32c-.63,1.42,1.15,3.23,2.36,1.82a20.65,20.65,0,0,0,5-11.75c.16-1.52-2.11-2-2.8-.76l-8.9,16.06a1.51,1.51,0,0,0,2.36,1.82l3.22-2.92-2.36-1.82C897.92,694.88,893,700,887.21,703c-6.3,3.24-15.62,2.18-22.59,2.5l-20.56,1c-1,0-4,.78-4.89.23-2.7-1.68.17-3.61,1.35-4.87,2.41-2.59,5-5.05,7.47-7.57l28.23-28.61c4.92-5,9.82-10,14.77-15,4.77-4.78,9.94-9.75,17.12-9.78a1.5,1.5,0,0,0,0-3c-6.89,0-12.21,3.88-17,8.46-6.29,6-12.24,12.35-18.33,18.53l-19.65,19.91-9.28,9.4c-2.51,2.54-5.8,5.12-7.79,8.08s-2.12,6.63,2,7.41,9.62-.38,13.89-.58l14.68-.68c7.18-.33,15.58.59,22.15-2.82,6.3-3.27,11.49-8.73,15.51-14.47,1-1.45-1.15-2.91-2.36-1.82l-3.22,2.92L901,694l8.9-16.06-2.8-.76a17.16,17.16,0,0,1-4.17,9.63l2.36,1.82A84.77,84.77,0,0,0,910.65,636c-.41-1.89-3.3-1.09-2.89.8Z"/><path class="cls-45" d="M781.65,298.83c-4.1-14.58-9.93-28.81-18.11-41.51A118.06,118.06,0,0,1,750,260.5c.09.81.19,1.61.3,2.41l6.3,45.86c.17,1.2.23,2.67-.77,3.37a3.4,3.4,0,0,1-2.63.19l-73.35-14.52L728.81,481c-6.5-37.89-13-76-13.48-114.4,0-3.88.39-8.51,3.79-10.38,2.14-1.17,4.75-.79,7.16-.48A87.54,87.54,0,0,0,764,352.2c4.63-1.49,9.25-3.44,12.74-6.82a24.43,24.43,0,0,0,4.92-7C787.52,326.21,785.3,311.8,781.65,298.83Z"/><path class="cls-45" d="M783.09,298.43a159.85,159.85,0,0,0-18.26-41.87,1.54,1.54,0,0,0-1.69-.69,134.75,134.75,0,0,1-13.52,3.19,1.49,1.49,0,0,0-1.1,1.45c1.1,9.23,2.5,18.44,3.77,27.65l2.1,15.29.52,3.82q-1.67,4.39-5.15,2.87c-2.4.05-5.36-1.06-7.72-1.53l-61.77-12.23a1.52,1.52,0,0,0-1.85,1.85l16.49,61.7,26.42,98.88,6,22.56c.51,1.9,3.21,1.07,2.89-.8C724.5,447,718.73,413.31,717.2,379.24c-.27-6.06-3.3-22.39,6.14-22.35,7.74,0,15.1,1.34,22.91.53,11.92-1.23,27.24-4,34.56-14.58,9-13,6.19-30.23,2.28-44.41a1.5,1.5,0,0,0-2.89.8c3.94,14.3,7.52,35.05-5.59,46-6,5-14.86,7-22.46,8.36a88.3,88.3,0,0,1-25,.7c-4.57-.51-9.36-.84-11.87,3.78-2.8,5.15-1.45,12.71-1.25,18.24.62,16.59,2.29,33.13,4.49,49.58,2.48,18.55,5.63,37,8.8,55.46l2.89-.8-16.49-61.7L687.34,320l-6-22.56-1.85,1.85,36.67,7.26c12.13,2.4,24.41,5.7,36.67,7.26,8.74,1.11,4.47-11.07,3.8-15.92-1.71-12.45-3.62-24.89-5.1-37.36l-1.1,1.45a134.75,134.75,0,0,0,13.52-3.19l-1.69-.69a157,157,0,0,1,18,41.16A1.5,1.5,0,0,0,783.09,298.43Z"/><path class="cls-45" d="M680.43,297.74a46,46,0,0,1-15.33,3.34c-5.57.24-10.79-1.63-16.26-1.64-5,0-9.81,4.08-13.94,6.56-4.52,2.72-9,5.47-13.46,8.33-17.11,11-32.91,23.9-44.65,40.72a127.21,127.21,0,0,0-21.41,53.52c-1.65,10.92-3.23,22.75-2.42,33.8.75,10.22,4.93,19.74,10.13,28.45,11,18.46,25.09,35.54,39.64,51.32,1.34,1.45,2.61,3.42,4.72,3.71"/><path class="cls-45" d="M680,296.29a43.8,43.8,0,0,1-16.77,3.3c-5.36-.14-10.92-2.37-16.3-1.48-4.33.71-7.94,3.52-11.54,5.81-4.87,3.09-9.87,6-14.71,9.11-17.23,11.13-33.36,24.33-45.18,41.26-12.23,17.5-19.25,37.44-22.24,58.48-1.54,10.82-3,22.08-1.42,33,1.39,9.86,5.76,18.93,10.88,27.36a268,268,0,0,0,21.2,29.68c4.18,5.14,8.5,10.16,12.92,15.1,2.89,3.23,5.88,8.08,10.21,9.4,1.85.57,2.64-2.33.8-2.89-3.85-1.18-7.52-7.1-10.08-10q-5.4-6.07-10.58-12.35a276.7,276.7,0,0,1-19-25.91c-5.48-8.53-10.6-17.48-12.78-27.48-2.42-11.1-.92-23.06.63-34.18,2.78-20,9-38.88,20.15-55.85,10.91-16.6,26.07-29.72,42.48-40.69,4.59-3.06,9.27-6,14-8.84s9.53-7.16,14.9-8c5.76-.88,11.71,1.63,17.54,1.45a48.14,48.14,0,0,0,15.73-3.39c1.78-.69,1-3.59-.8-2.89Z"/><path class="cls-46" d="M602.8,415.6c-6.63,5.74-9.2,15.13-8.49,23.87s4.31,17,8.31,24.76a407.59,407.59,0,0,0,2.74-50.45"/><path class="cls-45" d="M601.74,414.54c-14.86,13.77-8.32,34.89-.41,50.45.74,1.46,2.64.57,2.8-.76a423.52,423.52,0,0,0,2.74-50.45,1.5,1.5,0,0,0-3,0,423.52,423.52,0,0,1-2.74,50.45l2.8-.76c-7.29-14.33-13.88-34-.06-46.81,1.42-1.32-.71-3.43-2.12-2.12Z"/><line class="cls-47" x1="979.7" y1="736.91" x2="256.01" y2="736.91"/><rect class="cls-48" x="326.29" y="839.3" width="418.4" height="27.9"/><path class="cls-8" d="M685,248.3a7.74,7.74,0,0,0-8.82-3.54,9.37,9.37,0,0,0-6.33,7.43,6.79,6.79,0,0,0,.38,3.91,6.88,6.88,0,0,0,2,2.41c2,1.64,4.93,2.49,7.19,1.24a7.07,7.07,0,0,0,2.12-2,14.58,14.58,0,0,0,3-8.78"/><path class="cls-8" d="M686.26,247.54c-5.6-9.27-19.78-2.63-17.9,7.52.8,4.35,5.92,7.62,10.22,6.57,5.1-1.25,7.22-8.05,7.37-12.63.06-1.93-2.94-1.93-3,0a12.88,12.88,0,0,1-3.15,8.47c-2.88,3-8.2.33-8.53-3.5-.57-6.66,8.58-11.23,12.4-4.91a1.5,1.5,0,0,0,2.59-1.51Z"/><path class="cls-49" d="M683.23,235.52c1.8-5.49,2.31-12.3-1.86-16.3-4-3.81-10.56-3.25-15.44-.71s-8.74,6.66-13.27,9.78c-5.45,3.75-12.65,7.12-13.41,13.69a17.41,17.41,0,0,0,1.07,6.95q3.48,11.55,7.79,22.84a8.59,8.59,0,0,0,2.06,3.53c2,1.74,5,1.34,7.57.75a116.55,116.55,0,0,0,17.39-5.49c2.34-.94,5-2.42,5.19-4.94.16-2-1.4-3.76-2.8-5.25-2.18-2.31-4.33-4.92-4.8-8.06s1.45-6.84,4.61-7.17c2.92-.31,5.32,2.16,7.21,4.41a41.43,41.43,0,0,0-2-15.08"/><path class="cls-49" d="M684.68,235.92c2.81-9.32.68-21.36-11.38-20.91-5.32.2-9.81,2.88-13.9,6.09-5.12,4-10.7,7.44-15.74,11.5-3.82,3.08-6.38,7-5.84,12,.76,7.19,4.16,14.69,6.59,21.46,1.51,4.21,2.6,10.48,7.63,11.77,5.52,1.42,13.27-2.13,18.36-3.91,3.88-1.36,11.12-3.1,11.42-8.31.16-2.87-2.08-4.92-3.78-6.9s-4-4.69-3.88-7.61,1.13-2.69,4-2.7c3.62,0,3.27-.11,5.29,2.2a1.52,1.52,0,0,0,2.56-1.06,47,47,0,0,0-2-15.48c-.56-1.84-3.46-1.06-2.89.8A44.56,44.56,0,0,1,683,249.57l2.56-1.06c-2.73-3.12-6.91-6.68-11.14-3.83-3.06,2.07-3.86,6.23-2.81,9.58a18.67,18.67,0,0,0,3.73,6q1.5,1.58,2.84,3.29l-1.5,4.57c-1.1,1.43-4.53,2-6.25,2.61a112.21,112.21,0,0,1-11.35,3.44c-1.49.36-3.93,1.3-5.38.88-2.92-.85-4.55-4.64-5.48-7.16-2.54-6.87-5.29-13.93-7-21.07-2.23-9.41,5.7-12.75,12.14-17.24,5.47-3.81,10.18-9.39,16.83-11.13,4.19-1.1,9.23-.35,11.54,3.73,2.22,3.92,1.21,8.9,0,12.93-.56,1.85,2.34,2.64,2.89.8Z"/><path class="cls-2" d="M698.83,528.54c2.55-2.18,5.29-4.32,8.55-5.1s7.17.2,8.85,3.09a12,12,0,0,1,1.17,5.5l1,19.74a15,15,0,0,1,.41-10.63l6.78,113.55.7-7.21a48.46,48.46,0,0,1-16.15,23.81c-3.06,2.43-6.68,4.56-10.6,4.46-7.24-.19-11.91-7.5-15.25-13.93a6.33,6.33,0,0,1,.48,6.18l-12.26-51.55c-2.34-9.83-4.92-22.27-12.88-29.3-1.35,2.83-.08,6.48,0,9.48.32-1.72.11-3.75.58-5.39q-.69,2.38-1.16,4.82a45.73,45.73,0,0,0-.09-4.74,18.54,18.54,0,0,1-.9,6.3c-.87,2.58-.9,5.57-1.24,8.26l-2.32,18.43,1.67-5.8a363.38,363.38,0,0,0-.72,60.71,11.5,11.5,0,0,1-.44,5.3c-1.81,4.3-7.72,4.67-12.32,3.9-5.57-.93-11.24-2.61-15.48-6.35s-6.69-9.94-4.69-15.23a34.07,34.07,0,0,0,15.15,19.1c-4.43,4.1-13.14-.24-12.54-6.25l6,4.37a31.24,31.24,0,0,1-8.28-25.1l-1.71,7.3L607.92,531.92a17.13,17.13,0,0,1,.06-5.54c.77-3.33,3.47-5.9,6.41-7.65,8.06-4.81,18-4.76,27.38-4.57,26.63.54,54.39,1.36,77.89,13.89"/><path class="cls-2" d="M699.89,529.6c2.62-2.19,5.44-4.44,8.95-4.81,5.4-.57,6.87,3.81,7.11,8.23.35,6.25.65,12.5,1,18.75l2.95-.4a15.25,15.25,0,0,1,.41-9.84l-2.95-.4,6.78,113.55a1.5,1.5,0,0,0,3,0l.7-7.21c.17-1.75-2.45-1.94-2.95-.4a47.24,47.24,0,0,1-15.69,23.06c-4.81,3.75-10.59,5.73-15.8,1.59-3.48-2.76-5.71-6.79-7.76-10.67L683,662.57a5,5,0,0,1,.33,5h2.89q-5.91-24.82-11.81-49.64c-2.67-11.23-4.94-23.62-13.72-31.87a1.52,1.52,0,0,0-2.51.66c-1.08,3.35-.33,6.44-.07,9.88a1.5,1.5,0,0,0,3,0c.2-1.66.22-3.35.53-5,.35-1.87-2.38-2.69-2.89-.8-.44,1.6-.82,3.19-1.16,4.82l2.95.4c0-1.59,0-3.15-.09-4.74a1.5,1.5,0,0,0-3,0c-.14,5.08-1.64,10.38-2.25,15.48-.7,5.84-1.47,11.68-2.2,17.51-.22,1.72,2.49,2,2.95.4l1.67-5.8-2.95-.4a369.9,369.9,0,0,0-1.15,53.86c.24,4.51,2.2,12.52-3.41,14.39-3.62,1.21-8,.2-11.57-.74-8.43-2.23-17.6-8.85-14.57-18.78H621.1a36.87,36.87,0,0,0,15.83,20v-2.59c-4,3.08-10.31.29-10.28-4.95L624.4,681l6,4.37c1.43,1,2.91-1.15,1.82-2.36a30.54,30.54,0,0,1-7.84-24c.17-1.69-2.56-2-2.95-.4l-1.71,7.3,2.95.4L612.54,563.53l-2.44-24.7c-.43-4.37-2-10.29.26-14.37,2.12-3.84,7.19-6,11.17-7.18,7.38-2.15,15.24-1.75,22.84-1.59s15.17.38,22.74.9c17.9,1.24,35.73,4.38,51.79,12.73,1.71.89,3.23-1.7,1.51-2.59-14.16-7.37-29.66-10.86-45.45-12.48-8.42-.87-16.89-1.22-25.35-1.44-7.71-.2-15.59-.71-23.25.39-6.27.9-13.59,3.14-17.64,8.39-4.65,6-1.81,15.26-1.13,22.17l5.66,57.3,6.44,65.2c.16,1.57,2.53,2.17,2.95.4l1.71-7.3-2.95-.4a33.54,33.54,0,0,0,8.72,26.16l1.82-2.36-6-4.37a1.51,1.51,0,0,0-2.26,1.3c0,7.28,8.91,12,14.8,7.54a1.52,1.52,0,0,0,0-2.59A33.56,33.56,0,0,1,624,666.44a1.51,1.51,0,0,0-2.89,0c-2.44,8,2.16,15.66,9.13,19.55,6,3.32,17.14,6.76,23.42,2.4,3.53-2.45,3.49-6.22,3.24-10.15-.41-6.53-.73-13-.82-19.59a372.27,372.27,0,0,1,1.61-40.14c.16-1.72-2.49-2-2.95-.4l-1.67,5.8,2.95.4c.73-5.84,1.51-11.67,2.2-17.51.62-5.18,2.11-10.27,2.25-15.48h-3c.09,1.59.11,3.15.09,4.74s2.59,2.08,2.95.4.72-3.21,1.16-4.82l-2.89-.8c-.36,1.92-.4,3.85-.64,5.79h3c-.23-3.11-1-6,0-9.08l-2.51.66c9.24,8.69,11.05,22.6,13.85,34.37l10.9,45.82c.36,1.53,2.43,1.32,2.89,0a8.5,8.5,0,0,0-.63-7.34c-.91-1.7-3.49-.19-2.59,1.51,4.59,8.68,12,18.24,22.91,13.17s18.34-16.94,21.83-27.87l-2.95-.4-.7,7.21h3l-6.78-113.55a1.51,1.51,0,0,0-2.95-.4,17.86,17.86,0,0,0-.41,11.43c.45,1.59,3,1.33,2.95-.4q-.46-8.88-.92-17.76c-.19-3.51-.12-7.36-2.9-9.94-5.79-5.38-13.47-.65-18.34,3.41-1.48,1.24.65,3.35,2.12,2.12Z"/><path class="cls-9" d="M747.8,587.71a136.51,136.51,0,0,0-13.53-20.83,247.56,247.56,0,0,1-42.49,11.74,339.87,339.87,0,0,0,25.43,39.67,10.05,10.05,0,0,0,2.79,2.84c2.19,1.28,4.95.77,7.42.19q14-3.28,27.66-7.74a3.56,3.56,0,0,0,1.94-1.14c1.09-1.57-.77-3.49-2.39-4.5"/><path class="cls-9" d="M749.1,587a148.63,148.63,0,0,0-13.76-21.13,1.45,1.45,0,0,0-1.46-.39,257.82,257.82,0,0,1-42.49,11.74,1.51,1.51,0,0,0-.9,2.2q7.66,13.91,16.51,27.09c2.87,4.25,5.76,8.53,8.91,12.58,1.89,2.42,3.69,4.15,6.93,4.38,4.37.31,9.19-1.64,13.34-2.73q7.88-2.06,15.65-4.5c2.31-.73,6.48-1.26,7-4.33.36-2.31-1.75-4-3.41-5.21s-3.07,1.47-1.51,2.59c4,2.85-1.64,3.69-2.83,4.06q-2.74.86-5.5,1.67-4.59,1.36-9.22,2.58a88.06,88.06,0,0,1-10.8,2.64c-5.53.72-7.93-3.87-10.74-7.8a347.44,347.44,0,0,1-21.69-34.54l-.9,2.2a254.47,254.47,0,0,0,32.07-8.1c2.24-.73,4.65-2,7-2.38s2.75-.28,4.45,1.58a27.52,27.52,0,0,1,2.07,2.89,143.91,143.91,0,0,1,8.77,14.41c.91,1.7,3.5.19,2.59-1.51Z"/><path class="cls-4" d="M770.7,591.52a42,42,0,0,0-24.2-.46c-1,.28-2.13.74-2.42,1.74-.34,1.19.78,2.33,1.94,2.74a33.32,33.32,0,0,1,3.58,1,1.32,1.32,0,0,1,.58.46c.53.87-.81,1.66-1.81,1.83a94.58,94.58,0,0,0-14.55,3.71c-.95.32-2,.82-2.21,1.81-.25,1.41,1.5,2.27,2.91,2.56a52.66,52.66,0,0,0,36.4-5.84"/><path class="cls-4" d="M771.1,590.08a45.24,45.24,0,0,0-17.72-1.84c-2.92.3-8.12.43-10.06,3-1.77,2.32-.05,4.82,2.3,5.78a8.25,8.25,0,0,0,2.38.45c0-.22-3.17.49-3.73.61a81.5,81.5,0,0,0-10,2.7c-2.15.75-5,2.05-4,4.9s5.91,3.08,8.43,3.38a55,55,0,0,0,32.93-6.72c1.69-.93.18-3.52-1.51-2.59a52.22,52.22,0,0,1-25.44,6.68c-2.41,0-5.87.16-8.12-.67a1.84,1.84,0,0,1-2.38-1.78l1.78-.59c3.49-2.51,9.4-1.7,13.28-3.3,3.47-1.43,2.64-3.62.14-5.2a7.3,7.3,0,0,0-1.8-.44q-2-2.46,1-2.34c1.62-1.21,5.37-.93,7.41-1A42.89,42.89,0,0,1,770.3,593c1.85.56,2.64-2.34.8-2.89Z"/><path class="cls-5" d="M845.48,555.15c-11,6.54-20.27,16.05-31.89,21.51a95.52,95.52,0,0,1-10.06,3.86q-16.3,5.51-32.93,10a30.63,30.63,0,0,1,.48,13.47q13.36,1,26.76,1.13a65.28,65.28,0,0,0,10.65-.49c11.28-1.71,20.94-8.72,30.11-15.52l24.15-17.91"/><path class="cls-5" d="M844.72,553.86c-11,6.66-20.22,16-31.89,21.51-13.33,6.26-28.46,9.86-42.63,13.68a1.53,1.53,0,0,0-1,1.85,32,32,0,0,1,.48,12.68,1.53,1.53,0,0,0,1.45,1.9c16.07,1.12,34.37,3.89,49.47-3.07,7.35-3.39,13.85-8.33,20.32-13.13l22.65-16.79c1.53-1.14,0-3.74-1.51-2.59-12.93,9.59-25.66,20.84-39.92,28.4-15.4,8.16-34.24,5.35-51,4.18l1.45,1.9A36.16,36.16,0,0,0,772,590.1l-1,1.85c13.94-3.77,28.45-7.46,41.71-13.25,12.41-5.42,22.06-15.27,33.53-22.24,1.65-1,.14-3.6-1.51-2.59Z"/><path class="cls-6" d="M563.42,547.29a37.08,37.08,0,0,1,25.82-14.82,4.17,4.17,0,0,1,2.2.2,1.55,1.55,0,0,1,.91,1.82,2.28,2.28,0,0,1-.75.86l-5,4.12c-.56.46-1.16,1.25-.69,1.8a1.3,1.3,0,0,0,.86.35c6.91.87,13.25-4.95,20.2-4.48.91,1.12.48,2.8-.22,4.07-3.21,5.87-10.33,8.4-17,9.21s-13.53.42-19.84,2.66"/><path class="cls-6" d="M564.72,548a36.13,36.13,0,0,1,18.91-13c1.27-.35,4.49-1.38,5.61-1.09,2.57.64-.07,1.45-1.21,2.38-1.81,1.48-3.74,2.46-3.65,4.92a1.57,1.57,0,0,0,1.1,1.45c6.76,2.76,14.6-4.11,21.46-4.08l-1.45-1.1c1.73,4.37-4.84,8.09-7.89,9.36a33.48,33.48,0,0,1-9.68,2.22c-6.24.62-12.38.61-18.42,2.52-1.83.58-1.05,3.48.8,2.89,9.21-2.9,19.28-1.09,28.3-4.77,4.66-1.9,12.13-7.09,9.78-13a1.56,1.56,0,0,0-1.45-1.1,25,25,0,0,0-9.09,1.9c-3.4,1.26-7.95,3.77-11.57,2.29l1.1,1.45c-.13-3.24,7.91-3.94,6.31-8.24-1.07-2.87-4.88-2.08-7.13-1.69a39.19,39.19,0,0,0-24.44,15.19c-1.17,1.53,1.43,3,2.59,1.51Z"/><path class="cls-43" d="M422.66,484.66c13.4,6.37,27.19,13,37,24.2,3.84,4.39,7,9.36,10.52,14,3.36,4.33,7.13,8.33,10.56,12.61a103.33,103.33,0,0,1,12.57,20c.73,1.52,1.58,3.21,3.18,3.73a6.07,6.07,0,0,0,3-.08l63-12.36a30.77,30.77,0,0,0,7.25,8.55l-23.12,23.79c-9.53,9.81-20.34,20.24-34,21.27"/><path class="cls-43" d="M421.91,486c12.93,6.15,26.36,12.54,36.11,23.35,4.9,5.44,8.71,11.78,13.37,17.42,5.17,6.26,10.56,12.21,14.89,19.12,1.8,2.87,3.44,5.83,5,8.86,1,2,1.84,4.35,3.93,5.49s4.39.41,6.61,0c3.83-.72,7.64-1.5,11.46-2.25l49.67-9.74-1.69-.69a36.28,36.28,0,0,0,7.48,8.85v-2.12c-8.81,9.07-17.51,18.27-26.47,27.19-8.22,8.18-17.57,16.2-29.56,17.43-1.9.2-1.92,3.2,0,3,11.18-1.15,20.19-7.45,28.21-14.95,10.4-9.72,20-20.35,29.94-30.55a1.51,1.51,0,0,0,0-2.12,34,34,0,0,1-7-8.24,1.55,1.55,0,0,0-1.69-.69l-45.85,9-11.46,2.25c-4.84.95-8.37,1.78-11-3.36a107.61,107.61,0,0,0-10.9-17.33c-4.56-5.89-9.72-11.26-14.1-17.3-3.78-5.21-7.43-10.45-12.15-14.88-9.57-9-21.54-14.73-33.27-20.31-1.73-.83-3.26,1.76-1.51,2.59Z"/><path class="cls-45" d="M631.77,381.4c5.47-24.85,20.43-46.4,35.06-67.21,3.55-5.06,7.39-10.35,13.05-12.82,1.73-.76,3.88-1.18,5.41-.07a6.54,6.54,0,0,1,1.93,2.9c26.4,61.59,35,129.09,43.26,195.58a20,20,0,0,1,.09,6.54c-1.12,5.34-6.31,8.81-11.41,10.76-19.3,7.4-40.89,1.19-61.52,2.36-15,.85-29.57,5.64-44.56,5.79-2,0-4.58-.42-5.13-2.37a4.86,4.86,0,0,1,.19-2.5l40.09-156.3c5.29-20.63,11.16-42.3,26.16-57.42,3.48-3.51,8.51-6.78,13.06-4.86"/><path class="cls-45" d="M633.22,381.8c4.66-20.35,15.31-38.33,27-55.41q4.14-6.08,8.4-12.08c2.86-4,6.79-10,11.88-11.48,6.49-1.84,8.4,9.05,10.2,13.69q3,7.71,5.66,15.54c13.9,40.77,21.4,83.37,27.28,125.94,1.5,10.86,2.89,21.73,4.25,32.61.62,4.95,2.32,10.87,1,15.77-1.6,6-8,8.73-13.4,10.39-20.24,6.14-41.8-.62-62.46,1.56-10.89,1.15-21.53,3.92-32.42,5a54.15,54.15,0,0,1-7.47.42c-4.73-.2-3.07-4.63-2.26-7.8l4.45-17.37L632.37,432c6.37-24.84,12.54-49.75,19.14-74.53,2.79-10.47,5.9-21,10.71-30.7a76.68,76.68,0,0,1,9-14.34c3.73-4.61,9.22-11.24,15.84-9.2,1.85.57,2.64-2.33.8-2.89-8.74-2.69-15.8,6-20.45,12.14-6.3,8.38-10.61,18.06-14,27.94-7.93,23.26-12.92,47.71-19,71.49L614.13,491l-4.45,17.37c-.82,3.22-1.68,6.42-2.47,9.65-.43,1.75-1.24,3.78-.53,5.58,1.14,2.92,4.69,3.12,7.36,3.09a114.91,114.91,0,0,0,18.05-2c12.73-2.16,25.06-4.31,38-3.74,12.1.53,24.27,2.21,36.36.71,8.13-1,19.1-3.38,23.86-10.93,2.35-3.72,2-7.66,1.53-11.88q-1.18-9.62-2.42-19.24c-6.26-48.85-13.53-98-29.08-144.86q-3.18-9.6-6.83-19c-1.68-4.32-3.28-11.81-6.77-15.09-6.89-6.46-17,6.84-20.34,11.53-15.11,21-30.24,43.23-36.11,68.84-.43,1.88,2.46,2.68,2.89.8Z"/><path class="cls-45" d="M607.22,526.72q60,.23,120,3.22a4.2,4.2,0,0,0,2.65-.45c1-.73,1.19-2.17,1.22-3.44a98,98,0,0,0-1.64-20.44"/><path class="cls-45" d="M607.22,528.22q41.33.18,82.64,1.62,9.83.35,19.67.77l10.81.49c2.56.12,5.95.85,8.47.29,3.68-.82,3.77-4,3.81-7.22a101.18,101.18,0,0,0-1.72-19c-.34-1.9-3.23-1.09-2.89.8,1,5.53,2.43,12.51,1.61,18.17-.24,1.62-.43,3.54-2.4,4.26-1,.38-3.7-.18-4.91-.24l-8.85-.41q-17.69-.79-35.4-1.33-35.41-1.1-70.84-1.23a1.5,1.5,0,0,0,0,3Z"/><path class="cls-4" d="M721.48,479.21a29.57,29.57,0,0,0-14.29-14.39,5.52,5.52,0,0,0-3-.7,2.16,2.16,0,0,0-2,2,3.23,3.23,0,0,0,1.17,1.93l3.84,3.83c.46.46,1,1.07.72,1.67a1.35,1.35,0,0,1-.64.64c-1.92,1.07-4.29,0-6.21-1.07L694,469.23c-1.57-.87-3.9-1.56-4.83,0a3.13,3.13,0,0,0-.06,2.51c1.65,5.49,6.88,9.15,12.24,11.17s11.13,2.82,16.44,5"/><path class="cls-4" d="M722.78,478.45a32,32,0,0,0-9.45-11.66C711,465,707,462,703.8,462.68a3.52,3.52,0,0,0-2.47,5.29c.58,1.08,5,4.18,4.84,5-.3,1.27-9.71-4.13-10.73-4.66-2.16-1.13-5.47-2.64-7.36-.19s.23,6.19,1.68,8.25c6.25,8.88,18.3,9.38,27.61,12.91,1.81.69,2.59-2.21.8-2.89-7.63-2.89-16.85-3.43-23.29-8.88-1.19-1-5-4.56-4.34-6.23.94-2.47,4.42.18,5.53.8,2.69,1.49,5.74,3.84,8.94,4,4.54.21,5.35-2.94,2.65-5.86-1.19-1.29-6.55-5.12.11-3.45,1.77.44,3.87,2.42,5.16,3.53a29.69,29.69,0,0,1,7.26,9.66c.85,1.73,3.44.22,2.59-1.51Z"/><path class="cls-5" d="M832.52,467.27c-12.75,20.72-35.94,32.79-50.88,52-8.95-2.21-15.16-10-22.36-15.79-11.34-9.07-26.48-13.92-34.61-25.95a136.85,136.85,0,0,1-10.24,14.07c13.16,9.83,23.71,22.67,33.92,35.54,4.13,5.21,8.29,10.5,13.48,14.66s11.63,7.12,18.28,6.92c5.94-.18,11.49-2.84,16.76-5.59q8.92-4.66,17.53-9.88a253.15,253.15,0,0,0,2.35,41.55"/><path class="cls-5" d="M831.23,466.51c-6.46,10.23-15.3,18.4-24.38,26.26-4.53,3.92-9.12,7.78-13.51,11.85-1.9,1.76-3.77,3.56-5.58,5.42s-4.06,5.77-6.2,6.94c-3.92,2.14-12.65-7-15.35-9.46a96.28,96.28,0,0,0-12.09-9.58c-9.86-6.41-21.14-11.3-28.14-21.17a1.52,1.52,0,0,0-2.59,0,148.37,148.37,0,0,1-10,13.76,1.54,1.54,0,0,0,.3,2.36c9.26,7,17.26,15.47,24.73,24.35,7,8.38,13.24,18.06,21.73,25.08,7,5.78,15.66,9.24,24.76,7.25,10.73-2.34,21-9.45,30.27-15l-2.26-1.3a267.19,267.19,0,0,0,2.41,41.95c.26,1.9,3.15,1.09,2.89-.8a262.26,262.26,0,0,1-2.3-41.15,1.51,1.51,0,0,0-2.26-1.3c-8.83,5.33-18.59,12-28.69,14.55-12.07,3-22.26-4.71-29.75-13.32-13-14.9-24.11-30.77-40-42.87l.3,2.36A155,155,0,0,0,726,478.28h-2.59c6.91,9.74,17.48,14.9,27.35,21.07,10.42,6.5,18.41,17.9,30.52,21.36a1.47,1.47,0,0,0,1.46-.39C798,501.1,820.58,489,833.82,468c1-1.64-1.56-3.14-2.59-1.51Z"/><path class="cls-7" d="M796.16,638.2Q750.32,648,705.1,660.39c-6.34,1.73-12.67,3.51-18.88,5.64-19.6,6.72-37.79,16.93-57.18,24.24a83.27,83.27,0,0,1-6.56-14.21c-3.29-9.37-5.54-20.24-13.94-25.71q-.2,13.65,0,27.92.17,15.18.75,29.67c4.14-.27,10.8-.64,19-.82,25.48-.56,31.68,1.47,62.2,1.92,16.69.25,31.88-.11,38.62-.28,7.57-.18,14-.42,18.79-.62"/><path class="cls-7" d="M795.76,636.75q-44.39,9.54-88.23,21.42A286.08,286.08,0,0,0,669.31,671c-13.6,5.84-26.83,12.49-40.66,17.77l1.69.69c-4.5-7.94-6.93-16.36-10.11-24.83-2.33-6.21-5.42-11.74-10.93-15.62a1.51,1.51,0,0,0-2.26,1.3q-.4,28.8.7,57.59a1.52,1.52,0,0,0,1.5,1.5c21.33-1.36,42.29-.35,63.59.59,25,1.1,50,.63,75-.39,1.92-.08,1.93-3.08,0-3-25,1-50,1.49-75,.39-21.3-.94-42.26-1.95-63.59-.59l1.5,1.5q-1.1-28.78-.7-57.59l-2.26,1.3c6.51,4.59,9.05,12.08,11.44,19.34a108.8,108.8,0,0,0,8.52,20,1.51,1.51,0,0,0,1.69.69c12.65-4.83,24.82-10.77,37.19-16.25a289.53,289.53,0,0,1,41.69-14.4q43.81-11.91,88.23-21.42c1.89-.41,1.09-3.3-.8-2.89Z"/><path class="cls-2" d="M911.85,633.33q-32-.87-64.06-1.29c-11.26-.15-22.6-.24-33.67,1.8-8.81,1.63-17.31,4.59-25.73,7.64q-13.08,4.74-26,9.82c-13.3,5.21-27.78,11.92-33.17,25.15-3.29,8.06-2.49,17.34.47,25.53s7.93,15.48,13,22.55a551.25,551.25,0,0,0,36.68,45.69"/><path class="cls-2" d="M911.85,631.83c-22.6-.61-45.21-1.13-67.82-1.33-10.77-.1-21.61.09-32.2,2.27s-20.73,6.09-30.82,9.82c-15.66,5.8-35,10.92-46.85,23.51-12.84,13.69-9.31,32.71-.56,47.59,12.18,20.71,28.73,39.72,44.66,57.59,1.29,1.44,3.4-.68,2.12-2.12a540.2,540.2,0,0,1-38-47.51c-10.85-15.35-21.46-37.12-6.14-53.43,11.66-12.41,30.93-17.35,46.39-23.06,9.51-3.51,19.08-7.15,29-9.3s20.26-2.44,30.46-2.38c23.23.14,46.47.72,69.69,1.35,1.93.05,1.93-2.95,0-3Z"/><path class="cls-7" d="M782,772.54,780,770c.22-.19.4.38.12.47s-.54-.15-.73-.37l-14.64-17-5.64-6.55c-2.18-2.53-4.35-5.05-6.32-7.74,6.68,1.08,13.49-.83,20.25-.47,2.39.13,4.76.54,7.16.67,2.22.11,4.45,0,6.68-.06a80.71,80.71,0,0,1,17.87,1.65,5,5,0,0,1,1.59.53,4.86,4.86,0,0,1,1.57,1.9,88.15,88.15,0,0,1,4.21,9.1l10.12,24.28a253.72,253.72,0,0,1-32.59-3.06c-3-.43-6.17-.95-8.58-2.8"/><path class="cls-7" d="M783.08,771.48l-2-2.55-1.82,2.36.25.13-.69-1.69-.12.34,1.85-1c-1.72-.3-4.87-5.57-6.17-7.07l-6.71-7.79c-4.57-5.31-9.34-10.51-13.56-16.11l-1.3,2.26c7.37.9,14.66-.95,22-.33,7,.59,14,.14,21,.79,4.68.43,8.86.33,11.55,4.49,2.06,3.19,3.26,7.25,4.71,10.74l8.67,20.81,1.45-1.9c-6.75-.14-13.47-.65-20.17-1.42-6.35-.73-14.7-.63-20.24-4.24-1.62-1.06-3.13,1.54-1.51,2.59,5.16,3.36,12,3.43,17.93,4.18a227.56,227.56,0,0,0,24,1.88,1.51,1.51,0,0,0,1.45-1.9q-5.06-12.14-10.12-24.28c-1.31-3.14-2.46-6.62-4.36-9.46-1.79-2.68-3.49-3.06-6.71-3.62-7.79-1.34-15.39-.67-23.19-1.21a85.4,85.4,0,0,0-12.72-.42c-4.64.35-9.14.86-13.79.29a1.51,1.51,0,0,0-1.3,2.26c4.56,6.06,9.69,11.69,14.64,17.43l8.54,9.92c1.35,1.57,2.88,4.63,5.05,5a1.55,1.55,0,0,0,1.85-1l.12-.34a1.5,1.5,0,0,0-.69-1.69l-.25-.13A1.51,1.51,0,0,0,779,771l2,2.55c1.18,1.52,3.29-.61,2.12-2.12Z"/><path class="cls-2" d="M720.21,562.57a18.67,18.67,0,0,0,.56,5.89l2.89-.8-.09-.28c-.57-1.84-3.47-1.05-2.89.8l.09.28a1.5,1.5,0,0,0,2.89-.8,16,16,0,0,1-.46-5.1c.13-1.93-2.87-1.92-3,0Z"/><path class="cls-2" d="M721.29,541.15q.09-4-.11-8c-.1-1.92-3.1-1.93-3,0q.2,4,.11,8c0,1.93,3,1.93,3,0Z"/><rect class="cls-9" x="181.9" y="707.52" width="797.8" height="31.05"/><path class="cls-6" d="M277.14,694a5.43,5.43,0,0,0-3.3,2.35,39.91,39.91,0,0,0-8.29,30c.21,1.54.92,3.43,2.47,3.47s2.3-1.61,2.48-3c.36-2.69-.39-5.52.51-8.08.74-2.09,2.47-3.65,4.19-5,1.15-.92,2.56-1.87,4-1.49,1.61.42,2.35,2.29,2.58,3.95s.26,3.47,1.34,4.74c.88.65,2-.5,2.42-1.5a32,32,0,0,0,.65-23.9"/><path class="cls-6" d="M276.74,692.55c-4.38,1.51-7,6.54-8.87,10.49a42.43,42.43,0,0,0-4.09,15.37c-.23,3.23-.92,9.83,2.16,12.18,2.28,1.74,4.68.2,5.66-2.09.89-2.07.26-4.41.44-6.56.26-3.21,5.32-11.68,8.19-5.56.92,2,.4,7.09,4.19,6.11,3.52-.91,4.38-7.73,4.82-10.49a34.44,34.44,0,0,0-1.62-16.87c-.63-1.81-3.53-1-2.89.8A32.06,32.06,0,0,1,286.51,710c-.15,1.34-.59,6.45-1.81,7.53-2,1.76-1.13-.13-1.49-1.73-1.26-5.57-5.42-6.16-9.58-2.68-2.2,1.84-3.93,3.95-4.43,6.84-.1.6.2,5.1-.09,5.29-3,1.93-2.42-3.34-2.41-4.4a38.72,38.72,0,0,1,2.36-12.93c1.39-3.82,4.32-11,8.48-12.43,1.81-.63,1-3.53-.8-2.89Z"/><path class="cls-43" d="M378.87,478.75c-10.52,2.53-20.12,7.88-29.42,13.41-4.6,2.74-9.2,5.56-13.07,9.27-4.93,4.73-8.45,10.71-11.91,16.6-10.51,17.9-21.06,35.88-28.74,55.17-3.51,8.82-6.4,17.86-9.29,26.9-3.52,11-7,22-8.83,33.45-1.12,7.15-1.54,14.39-2,21.62l-1.88,32.08a6.34,6.34,0,0,0,.42,3.38,5.8,5.8,0,0,0,2.94,2.28,32.41,32.41,0,0,0,8.36,2.45c1.52.23,3.24.3,4.41-.7a6.11,6.11,0,0,0,1.57-3.5c3-14,9.27-27.14,15.57-40,18.5-37.88,38.17-75.44,50.9-115.62"/><path class="cls-43" d="M378.47,477.3c-13.73,3.51-27.45,10.93-38.76,19.39-11.14,8.32-17.37,21.85-24.14,33.63C308,543.51,300.74,556.94,295,571a409.14,409.14,0,0,0-15.07,45.23c-4.24,15.3-5.3,30.66-6.23,46.45-.48,8.15-1.3,16.37-1.44,24.53-.09,5.53,3.69,7.17,8.56,8.6,3.75,1.1,9.09,2.47,11.3-1.8,1.44-2.77,1.68-6.45,2.56-9.44,1.09-3.73,2.38-7.39,3.79-11C304.18,659,311.67,645,318.59,631c15.26-31,30.25-62.16,40.78-95.11.59-1.84-2.31-2.63-2.89-.8-8.65,27.06-20.32,53-32.7,78.5-6,12.28-12.06,24.49-18,36.76-5.56,11.39-11.08,22.92-14.44,35.18-.74,2.72-.78,7.66-4.26,8.47-1.52.36-4.72-.78-6.26-1.29-3.18-1-5-1.4-5.52-5.46-.36-2.95.38-6.49.55-9.43l.66-11.32c.88-15.06,1.42-30.07,5.11-44.77a335.12,335.12,0,0,1,31-80c3.64-6.62,7.45-13.15,11.27-19.66,4-6.82,7.83-14,13.59-19.55,5.46-5.24,12.44-9,19-12.67a94.77,94.77,0,0,1,22.81-9.63c1.87-.48,1.08-3.37-.8-2.89Z"/><g id="marker"><path d="M742,220.34l-.49.19-.61-1.58c-.06-.15-.34-.19-.62-.08l-1.29.5-.83-2.17c-.06-.15-.34-.19-.62-.08l-.8.31-.48-1.26c-.09-.31-.63-.37-1.18-.16s-.9.62-.79.91l.48,1.26-.8.31c-.28.11-.47.32-.41.47l.83,2.18-1.29.5c-.28.11-.47.32-.41.47l.61,1.58-.49.19c-.28.11-.47.32-.41.47l7.1,18.53c.06.15.34.19.62.08l.49-.19.27.7c.06.15.34.19.62.08l7.19-2.76c.28-.11.47-.32.41-.47l-.27-.7.49-.19c.28-.11.47-.32.41-.47l-7.11-18.54C742.53,220.26,742.25,220.23,742,220.34Zm-7.3-1.51,2.55-1,.73,1.9-2.55,1-.73-1.9Zm13.89,20.24-8.16,3.13-6.89-18,8.16-3.13,6.89,18Z"/></g><rect class="cls-9" x="731.41" y="227.27" width="19.25" height="8.74" transform="translate(689.96 -543.07) rotate(68.87)"/><path class="cls-7" d="M778.92,769.63c13.83,19.18,31,35.7,48,52.11a50.9,50.9,0,0,0-23,16.55q21.9-.62,43.81-.74c-13.12-17.62-16.4-40.49-25.2-60.62"/><path class="cls-7" d="M777.62,770.39c14,19.28,31.09,35.92,48.21,52.42l.66-2.51a54.34,54.34,0,0,0-23.64,16.94,1.52,1.52,0,0,0,1.06,2.56q21.9-.61,43.81-.74a1.51,1.51,0,0,0,1.3-2.26c-13.07-18-16.58-40.5-25.2-60.62-.76-1.77-3.34-.24-2.59,1.51,8.64,20.14,12.11,42.57,25.2,60.62l1.3-2.26q-21.91.13-43.81.74l1.06,2.56a51.5,51.5,0,0,1,22.31-16.17,1.52,1.52,0,0,0,.66-2.51c-16.92-16.31-33.86-32.75-47.74-51.81-1.13-1.55-3.73-.05-2.59,1.51Z"/><path class="cls-2" d="M422.44,639.75c12.93.19,24.8,7.64,31.1,17.39s7.62,21.43,6.11,32.52S454,711.41,449.81,722l-12.63,32.19c-4.55,11.6-9.12,23.24-15.23,34.3-5,9-10.92,17.55-14.59,27a3.05,3.05,0,0,0-.27,2.09c.35,1,1.56,1.5,2.67,1.86,6.1,2,12.63,2.94,18.82,4.74s12.32,4.72,15.69,9.56a621.47,621.47,0,0,1-64.82,3.71c-1.67-47.05,5.44-94,12.53-140.64h-2"/><path class="cls-2" d="M422.44,641.25a37.46,37.46,0,0,1,34.75,27.94c4.65,17.57-2.14,35.31-8.49,51.52-6.54,16.7-12.75,33.6-19.86,50.07A205.63,205.63,0,0,1,417,794c-3.86,6.53-8.14,13.07-10.78,20.22-2.44,6.58,4.92,7.31,9.9,8.49,9.35,2.22,20.56,3.58,26.83,11.74l1.3-2.26a640.4,640.4,0,0,1-64.82,3.71l1.5,1.5c-1.55-47.11,5.42-93.81,12.47-140.24a1.53,1.53,0,0,0-1.45-1.9h-2a1.5,1.5,0,0,0,0,3h2l-1.45-1.9c-7.09,46.69-14.14,93.67-12.58,141a1.52,1.52,0,0,0,1.5,1.5,640.4,640.4,0,0,0,64.82-3.71c1-.11,2.07-1.25,1.3-2.26-4.16-5.42-10.14-8.35-16.59-10.25-4-1.17-8-1.92-12-2.87-1.85-.44-4.28-.66-6-1.6-3.54-2-1.18-4.92.19-7.73,4-8.17,9.15-15.71,13.4-23.75a248.06,248.06,0,0,0,10.6-23.46c7.1-17.65,14.47-35.34,20.77-53.29,5.31-15.14,8.63-32,2.17-47.36a40.38,40.38,0,0,0-35.67-24.37c-1.93-.07-1.93,2.93,0,3Z"/><path class="cls-9" d="M413.64,633.3a451.9,451.9,0,0,0-50.81,2.46c.09,2,1.83,3.7,3.76,4.35a15.51,15.51,0,0,0,6.06.38q60.34-4.11,120.9-2.73c2.93.07,6.18,0,8.37-1.92,1.82-1.62,2.43-4.17,2.94-6.55l12.75-58.81c.38-1.74.74-3.64-.07-5.22-1.32-2.6-4.85-2.89-7.76-2.83l-75.48,1.49a8.53,8.53,0,0,0-3.7.63c-2.2,1.11-3,3.79-3.54,6.18a490.65,490.65,0,0,0-9.3,53.61c-.41,3.49-1.2,7.6-4.41,9"/><path class="cls-9" d="M413.64,631.8a469.63,469.63,0,0,0-50.81,2.46,1.53,1.53,0,0,0-1.45,1.9c.7,3.43,3.32,5.28,6.68,5.81,6.49,1,13.88-.59,20.42-1q21.78-1.22,43.59-1.73t43.62-.3c6.66.06,13.43.58,20.08.28,4.07-.18,7.45-1.5,9.25-5.34,2.47-5.24,2.93-11.89,4.15-17.51l4.94-22.77,4.11-19c.88-4,2.81-9.23-1.24-12.18-3.06-2.24-7.65-1.55-11.19-1.48l-23.84.47-42.71.85c-4.73.09-9.78-.68-12.35,4.08-2.92,5.41-3.38,13.14-4.57,19.14q-2.27,11.44-4,23-.75,5-1.39,10c-.55,4.29-.12,11-4.38,13.53a1.5,1.5,0,0,0,1.51,2.59c2.77-1.66,4-4.14,4.69-7.25,1.23-5.59,1.49-11.48,2.32-17.14q2.55-17.31,6.32-34.41c.5-2.24.71-5.06,1.75-7.16,2-4.11,5.41-3.3,9.09-3.37l19.86-.39,35.76-.71c5.68-.11,11.49-.6,17.17-.31,2.35.12,5,.3,5.46,3.88.15,1.11-.56,3.16-.77,4.17-.65,3.17-1.37,6.32-2.06,9.49l-7.61,35.1c-1,4.83-1.44,10.67-3.41,15.2-3,6.87-13.95,4.39-20,4.3q-18.34-.27-36.69,0-19.83.26-39.64,1.1-9.91.42-19.81,1c-4.68.27-20.91,3.67-22.23-2.77l-1.45,1.9a469.63,469.63,0,0,1,50.81-2.46,1.5,1.5,0,0,0,0-3Z"/><path class="cls-2" d="M351.22,675.51l4.91,2.13a1.55,1.55,0,0,0,2.05-.54,1.51,1.51,0,0,0-.54-2.05l-4.91-2.13a1.55,1.55,0,0,0-2.05.54,1.51,1.51,0,0,0,.54,2.05Z"/><path class="cls-2" d="M355.15,675.18a10.08,10.08,0,0,0-4.41,4.68,1.55,1.55,0,0,0,.54,2.05,1.51,1.51,0,0,0,2.05-.54,7.46,7.46,0,0,1,3.34-3.6c1.7-.91.19-3.5-1.51-2.59Z"/></svg>