<svg xmlns="http://www.w3.org/2000/svg" width="323" height="305" viewBox="0 0 323 305">
  <metadata><?xpacket begin="﻿" id="W5M0MpCehiHzreSzNTczkc9d"?>
<x:xmpmeta xmlns:x="adobe:ns:meta/" x:xmptk="Adobe XMP Core 5.6-c138 79.159824, 2016/09/14-01:09:01        ">
   <rdf:RDF xmlns:rdf="http://www.w3.org/1999/02/22-rdf-syntax-ns#">
      <rdf:Description rdf:about=""/>
   </rdf:RDF>
</x:xmpmeta>
                                                                                                    
                                                                                                    
                                                                                                    
                                                                                                    
                                                                                                    
                                                                                                    
                                                                                                    
                                                                                                    
                                                                                                    
                                                                                                    
                                                                                                    
                                                                                                    
                                                                                                    
                                                                                                    
                                                                                                    
                                                                                                    
                                                                                                    
                                                                                                    
                                                                                                    
                                                                                                    
                           
<?xpacket end="w"?></metadata>
<defs>
    <style>
      .cls-1 {
        fill: #3c9;
        fill-rule: evenodd;
      }
    </style>
  </defs>
  <path id="Forma_1" data-name="Forma 1" class="cls-1" d="M321.8,172c-0.8-1.6-2.8-2.4-4.4-2.8-9.206,0-88.455-3.2-88.455-95.2a5.2,5.2,0,0,0-10.406,0c0,92-79.249,95.2-88.054,95.2a4.545,4.545,0,0,0-3.2,1.2,6.025,6.025,0,0,0-1.6,1.6,5.927,5.927,0,0,0,0,5.2,5.553,5.553,0,0,0,4.8,2.8h0.4c9.206,0,88.054,3.2,88.054,95.2a5.2,5.2,0,0,0,10.407,0c0-91.6,78.848-95.2,88.054-95.2a6.1,6.1,0,0,0,4.8-2.8A4.919,4.919,0,0,0,321.8,172Zm-98.061,64c-11.607-38-40.024-54.4-62.438-61.6,22.414-7.2,50.831-23.6,62.438-61.6,11.607,38,40.025,54.4,62.439,61.6C263.763,181.6,235.345,198,223.738,236ZM157.7,68a5.392,5.392,0,0,0,5.2-5.6,5.3,5.3,0,0,0-5.2-5.2c-4.8,0-48.03-1.6-48.03-52a5.2,5.2,0,0,0-10.407,0c0,50.4-43.226,52-48.029,52h-0.4a5.221,5.221,0,0,0-4.8,5.2,5.3,5.3,0,0,0,5.2,5.2c5.2,0,48.03,1.6,48.03,52a5.3,5.3,0,0,0,5.2,5.2c2.4,0.4,4.8-2,4.8-4.8,0-50.4,43.226-52,48.029-52h0.4ZM104.065,90.8c-6.4-15.2-18.012-23.6-28.818-28.4A53.836,53.836,0,0,0,104.065,34c6.4,15.2,18.011,23.6,28.817,28.4A53.83,53.83,0,0,0,104.065,90.8Zm7.6,146.8c-4.8,0-48.029-1.6-48.029-52a5.2,5.2,0,0,0-10.406,0c0,50.4-43.227,52-48.03,52H4.8A5.221,5.221,0,0,0,0,242.8,5.3,5.3,0,0,0,5.2,248c5.2,0,48.03,1.6,48.03,52a5.3,5.3,0,0,0,5.2,5.2c2.4,0.8,4.8-1.6,4.8-4.8,0-50.4,43.227-52,48.03-52h0.4a5.391,5.391,0,0,0,5.2-5.6A5.3,5.3,0,0,0,111.669,237.6Zm-53.633,34c-6.8-15.2-18.011-23.6-28.818-28.4a53.834,53.834,0,0,0,28.818-28.4c6.4,15.2,18.011,23.6,28.818,28.4A53.834,53.834,0,0,0,58.036,271.6Z"/>
</svg>
