<svg xmlns="http://www.w3.org/2000/svg" width="59" height="34" viewBox="0 0 59 34">
  <metadata><?xpacket begin="﻿" id="W5M0MpCehiHzreSzNTczkc9d"?>
<x:xmpmeta xmlns:x="adobe:ns:meta/" x:xmptk="Adobe XMP Core 5.6-c138 79.159824, 2016/09/14-01:09:01        ">
   <rdf:RDF xmlns:rdf="http://www.w3.org/1999/02/22-rdf-syntax-ns#">
      <rdf:Description rdf:about=""/>
   </rdf:RDF>
</x:xmpmeta>
                                                                                                    
                                                                                                    
                                                                                                    
                                                                                                    
                                                                                                    
                                                                                                    
                                                                                                    
                                                                                                    
                                                                                                    
                                                                                                    
                                                                                                    
                                                                                                    
                                                                                                    
                                                                                                    
                                                                                                    
                                                                                                    
                                                                                                    
                                                                                                    
                                                                                                    
                                                                                                    
                           
<?xpacket end="w"?></metadata>
<defs>
    <style>
      .cls-1 {
        fill: #3c9;
        fill-rule: evenodd;
      }
    </style>
  </defs>
  <path id="Forma_1" data-name="Forma 1" class="cls-1" d="M50.891,9A30.172,30.172,0,0,0,7.911,9L0,17.007l8.111,8.208a30.173,30.173,0,0,0,42.98,0L59,17.205ZM49.678,23.788a28.2,28.2,0,0,1-40.161,0l-6.7-6.782,6.506-6.583a28.2,28.2,0,0,1,40.161,0l6.7,6.782Zm-21.2-14.78a7.027,7.027,0,0,0-6.977,7.06,1,1,0,1,0,1.994,0,5.019,5.019,0,0,1,4.984-5.043A1.009,1.009,0,0,0,28.475,9.008Zm1-5.043A13.112,13.112,0,1,0,42.429,17.076,13.05,13.05,0,0,0,29.471,3.965Zm0,24.205A11.095,11.095,0,1,1,40.435,17.076,11.043,11.043,0,0,1,29.471,28.17Z"/>
</svg>
