<svg xmlns="http://www.w3.org/2000/svg" width="480" height="480" viewBox="0 0 480 480">
  <metadata><?xpacket begin="﻿" id="W5M0MpCehiHzreSzNTczkc9d"?>
<x:xmpmeta xmlns:x="adobe:ns:meta/" x:xmptk="Adobe XMP Core 5.6-c138 79.159824, 2016/09/14-01:09:01        ">
   <rdf:RDF xmlns:rdf="http://www.w3.org/1999/02/22-rdf-syntax-ns#">
      <rdf:Description rdf:about=""/>
   </rdf:RDF>
</x:xmpmeta>
                                                                                                    
                                                                                                    
                                                                                                    
                                                                                                    
                                                                                                    
                                                                                                    
                                                                                                    
                                                                                                    
                                                                                                    
                                                                                                    
                                                                                                    
                                                                                                    
                                                                                                    
                                                                                                    
                                                                                                    
                                                                                                    
                                                                                                    
                                                                                                    
                                                                                                    
                                                                                                    
                           
<?xpacket end="w"?></metadata>
<defs>
    <style>
      .cls-1 {
        fill: #3c9;
        fill-rule: evenodd;
      }
    </style>
  </defs>
  <path id="Forma_1" data-name="Forma 1" class="cls-1" d="M184,335.977H56V307.984a28,28,0,0,0-56,0v163.96a8,8,0,0,0,8,8H120a23.888,23.888,0,0,0,17.76-39.99,23.623,23.623,0,0,0,0-31.992,23.255,23.255,0,0,0,4.8-24H184A23.994,23.994,0,1,0,184,335.977ZM120,463.946H88a8,8,0,1,1,0-16h32A8,8,0,1,1,120,463.946Zm0-31.992H88a8,8,0,1,1,0-16h32A8,8,0,1,1,120,431.954Zm0-31.993H88a8,8,0,1,1,0-16h32A8,8,0,1,1,120,399.961Zm64-31.992H88A23.889,23.889,0,0,0,70.24,407.96a23.623,23.623,0,0,0,0,31.992,23.253,23.253,0,0,0-4.8,23.994H16V307.984a12,12,0,0,1,24,0v35.991a8,8,0,0,0,8,8H184A8,8,0,1,1,184,367.969ZM472,0.058H360a23.889,23.889,0,0,0-17.76,39.99,23.623,23.623,0,0,0,0,31.992,23.254,23.254,0,0,0-4.8,23.994H296a23.994,23.994,0,1,0,0,47.988H424v27.993a28,28,0,0,0,56,0V8.056A8,8,0,0,0,472,.058Zm-112,16h32a8,8,0,1,1,0,16H360A8,8,0,1,1,360,16.054Zm0,31.992h32a8,8,0,1,1,0,16H360A8,8,0,1,1,360,48.046Zm0,31.992h32a8,8,0,1,1,0,16H360A8,8,0,1,1,360,80.039Zm104,91.977a12,12,0,0,1-24,0V136.025a8,8,0,0,0-8-8H296a8,8,0,1,1,0-16h96A23.889,23.889,0,0,0,409.76,72.04a23.623,23.623,0,0,0,0-31.992,23.254,23.254,0,0,0,4.8-23.994H464V172.016ZM240,200.01A39.99,39.99,0,1,0,280,240,40,40,0,0,0,240,200.01Zm0,63.984A23.994,23.994,0,1,1,264,240,24,24,0,0,1,240,263.994Zm181.912-29.345-2.4-2.695C330.289,132.836,177.588,124.8,78.446,214a241.42,241.42,0,0,0-17.958,17.954l-2.4,2.695a8,8,0,0,0,0,10.7l2.4,2.695C149.712,347.164,302.412,355.2,401.554,266a241.42,241.42,0,0,0,17.958-17.954l2.4-2.695A8,8,0,0,0,421.912,234.649ZM74.8,240a225.879,225.879,0,0,1,104.552-63.593,87.6,87.6,0,0,0-3.3,123.868q1.606,1.695,3.3,3.3A225.886,225.886,0,0,1,74.8,240ZM240,311.983A71.983,71.983,0,1,1,312,240,71.993,71.993,0,0,1,240,311.983Zm60.648-8.39a87.605,87.605,0,0,0,3.3-123.869q-1.606-1.693-3.3-3.3A225.881,225.881,0,0,1,405.2,240,225.879,225.879,0,0,1,300.648,303.593Z"/>
</svg>
